<?xml version="1.0" encoding="UTF-8" standalone="no"?>
<!-- Created with Inkscape (http://www.inkscape.org/) -->

<svg
        xmlns:dc="http://purl.org/dc/elements/1.1/"
        xmlns:cc="http://creativecommons.org/ns#"
        xmlns:rdf="http://www.w3.org/1999/02/22-rdf-syntax-ns#"
        xmlns="http://www.w3.org/2000/svg"
        xmlns:sodipodi="http://sodipodi.sourceforge.net/DTD/sodipodi-0.dtd"
        xmlns:inkscape="http://www.inkscape.org/namespaces/inkscape"
        width="290"
        height="95"
        viewBox="0 0 290 95.000002"
        id="svg4299"
        version="1.1"
        inkscape:version="0.91pre3 r13670"
        sodipodi:docname="logo-white.svg">
  <defs
     id="defs4301" />
  <sodipodi:namedview
     id="base"
     pagecolor="#ffffff"
     bordercolor="#666666"
     borderopacity="1.0"
     inkscape:pageopacity="0.0"
     inkscape:pageshadow="2"
     inkscape:zoom="2.368134"
     inkscape:cx="64.33046"
     inkscape:cy="83.25296"
     inkscape:document-units="px"
     inkscape:current-layer="layer1"
     showgrid="true"
     units="px"
     inkscape:window-width="1920"
     inkscape:window-height="1148"
     inkscape:window-x="-8"
     inkscape:window-y="-8"
     inkscape:window-maximized="1">
    <inkscape:grid
       type="xygrid"
       id="grid4925" />
  </sodipodi:namedview>
  <metadata
     id="metadata4304">
    <rdf:RDF>
      <cc:Work
         rdf:about="">
        <dc:format>image/svg+xml</dc:format>
        <dc:type
           rdf:resource="http://purl.org/dc/dcmitype/StillImage" />
        <dc:title></dc:title>
      </cc:Work>
    </rdf:RDF>
  </metadata>
  <g
     inkscape:label="Ebene 1"
     inkscape:groupmode="layer"
     id="layer1"
     transform="translate(0,-957.36214)">
    <g
       transform="matrix(1.25,0,0,-1.25,1.6375,1051.5399)"
       inkscape:label="ink_ext_XXXXXX"
       id="g4179"
       style="fill:#ffffff;fill-opacity:1">
      <g
         transform="scale(0.1,0.1)"
         id="g4181"
         style="fill:#ffffff;fill-opacity:1">
        <path
           inkscape:connector-curvature="0"
           id="path4183"
           style="fill:#ffffff;fill-opacity:1;fill-rule:nonzero;stroke:none"
           d="m 548.105,416.199 c -2.601,0 -18.089,-8.269 -20.605,-10.406 -12.184,13.109 -3.836,9.223 -15.043,6.277 -5.043,5.52 -10.082,11.09 -15.129,16.524 -1.203,-0.371 -2.305,-0.84 -3.406,-1.305 0.441,-2.836 10.187,-22.664 8.453,-24.203 -6.145,3.551 -12.18,7.074 -18.219,10.637 -0.972,21.457 20.973,23.496 29.949,38.007 -0.417,0.692 -0.761,1.297 -1.097,1.879 -29.723,4.727 -64.5,13.942 -91.043,-1.652 -1.207,-7.074 -12.18,-39.887 -16.02,-39.887 -2.746,1.051 -5.48,2.094 -8.129,3.035 0.567,1.836 5.93,1.489 7.579,1.551 -2.86,11.567 -3.516,15.489 -12.395,22.074 -14.602,17.368 -23.266,36.602 -33.789,55.723 -8.117,13.692 -20.719,27.145 -24.578,40.371 -1.414,0.481 -2.754,0.946 -4.063,1.313 -0.531,2.121 -0.976,4.133 -1.422,6.133 -3.621,21.714 -18.113,33.046 -3.621,53.839 -0.765,4.704 -1.441,9.321 -2.074,13.918 -5.168,3.196 -4.828,2.957 -6.594,7.911 4.727,3.781 9.981,-2 14.047,-5.911 39.821,-5.297 13.942,45.219 -8.133,18.907 -12.601,5.433 4.067,16.988 1.442,31.5 -9.43,3.195 -16.887,6.621 -24.914,0.593 -7.774,-12.031 5.172,-19.004 4.387,-31.871 -10.083,-0.941 -17.223,16.52 -30.485,5.074 -12.621,-41.898 16.567,-14.992 31.926,-17.699 1.203,-9.461 -17.457,-9.804 -2.524,-29.039 -22.39,-6.019 -45.753,-6.726 -68.019,-10.16 -0.781,-2.477 -1.543,-4.969 -2.305,-7.551 0.973,-0.593 1.969,-1.168 3.071,-1.761 -0.106,-2.829 -1.102,-6.153 -0.766,-10.059 l 2.969,-1.387 c -1.992,-4.386 -5.832,-2.969 -0.235,-8.972 14.278,-2.141 38.485,4.586 54.418,6.238 0,-26.914 -72.953,-80.613 -48.484,-98.797 4.594,5.422 8.035,13.316 9.359,15.203 2.364,3.383 20.36,31.176 23.325,34.363 0.656,-0.23 1.332,-0.464 2.093,-0.824 2.946,-9.547 -11.523,-44.847 -15.273,-57.609 -1.735,-11.086 -2.285,-23.504 -8.192,-33.867 -4.687,3.332 2.012,5.75 -6.066,8.035 4.41,10.355 -0.527,7.414 9.012,14.976 -0.871,14.754 -19.407,20.899 -28.856,26.203 0.762,16.899 -6.461,18.188 -17.218,10.973 1.097,-0.812 2.199,-1.758 3.386,-2.699 l 0,-3.203 c -8.433,-6.012 -17.543,-12.387 -25.781,-17.703 -7.988,5.207 6.801,36.953 8.668,44.152 -0.875,26.914 0.121,47.578 -25.656,51.012 -2.078,-4.039 1.968,-20.672 2.629,-27.285 -10.871,-13.207 -22.711,-21.606 -11.735,-37.524 1.543,-14.883 4.723,-16.875 18.981,-20.672 0,-0.816 0.101,-1.773 0.211,-2.707 l -13.055,0 c 0,-1.301 0,-2.722 0.109,-4.152 2.414,-1.293 10.317,0.363 14.043,0.742 0,-0.848 0,-1.789 0.106,-2.727 -2.961,-1.554 -11.078,-0.714 -14.699,-1.554 -0.426,-7.664 -1.207,-15.102 -2.731,-22.653 -1.758,-2.953 -11.633,-19.484 -13.496,-17.457 8.668,17.457 14.359,32.446 -6.379,12.848 -12.176,-5.41 -9.316,9.574 -20.926,-8.5 -8.343,6.5 -8.027,7.324 -16.351,6.969 -0.996,1.195 -1.973,2.347 -2.864,3.535 -2.964,0.117 -5.8,0.117 -8.6636,0.117 -0.9961,-1.875 -1.9883,-3.769 -2.8594,-5.781 0.6602,-1.75 1.4219,-3.649 2.2031,-5.531 -0.7812,-19.246 12.8399,-20.43 27.1989,-28.809 -2.414,-2.594 -18.976,7.191 -24.6754,6.375 -0.6602,-1.289 -1.3203,-2.617 -1.8672,-3.914 l 4.2816,-5.996 c 8.449,-0.727 22.707,-15.129 31.16,-21.504 -1.442,-15.344 -2.754,-30.695 -4.067,-46.035 0.762,-0.449 1.524,-1.059 2.411,-1.645 -1.332,-6.968 -5.274,-19.375 -5.274,-26.336 7.246,-6.496 0.344,-9.433 0,-21.589 8.008,-8.618 5.824,-15.586 5.598,-28.821 1.117,-0.945 2.328,-1.894 3.515,-2.949 0.125,-7.422 0.207,-14.988 0.446,-22.559 1.758,-1.511 3.511,-3.054 5.379,-4.597 0.211,-9.321 0.976,-16.035 3.046,-25.957 -6.015,-3.188 -11.734,-2.129 -18.085,-5.215 l 2.308,-2.824 c 20.078,-1.067 34.336,9.199 52.871,9.199 30.614,-16.406 25.332,-30.789 61.981,-10.008 17.668,2.481 22.39,-29.035 46.84,-15.949 37.195,31.055 27.769,15.234 59.793,-7.676 4.074,0.117 8.117,0.117 12.187,0.117 31.922,22.41 20.504,32.219 55.824,3.43 16.781,-2.844 28.43,20.078 38.957,20.078 27.434,-9.816 32.895,-11.809 62.301,3.426 -9.32,12.031 -11.418,-4.981 -19.852,-4.981 -0.867,4.739 0.239,8.157 0.34,12.051 8.559,8.137 17.118,16.289 25.672,24.309 l 0,0.469 c -5.48,2.832 -10.972,5.566 -16.351,8.269 0.445,9.211 -0.551,19.258 6.015,24.902 -6.015,32.825 -3.597,68.594 -1.394,101.407 2.285,3.554 4.593,7.082 6.902,10.515 9.215,10.969 20.945,13.813 30.484,24.657 l -2.418,3.324 c -9.527,-2.024 -14.804,-4.012 -22.812,-8.274 -3.75,9.426 40.465,5.754 22.812,45.586 l 0,0 z m -304.218,51.188 0.476,-6.039 c -0.316,0 -0.629,0 -0.98,-0.141 -3.594,3.145 -2.922,3.688 -2.641,6.703 1.34,0.176 1.34,0.176 3.145,-0.523 l 0,0 z m 3.883,0.722 c -3.723,1.485 -4.215,5.121 -5.102,7.344 0.523,0.711 1.055,1.258 1.547,1.813 6.16,-1.266 3.555,-9.157 3.555,-9.157 l 0,0 z m 3.046,15.993 c 1.704,-3.75 2.164,-4.731 1.918,-10.918 -3.726,5.332 -3.839,5.824 -4.164,10.918 l 2.246,0 0,0 z m 3.215,7.457 c 0.989,-1.907 2.137,-4.02 3.352,-6.149 -1.028,-3.789 -1.028,-3.789 -1.371,-3.621 -1.828,2.551 -3.391,4.91 -4.949,7.234 l 2.968,2.536 0,0 z m 4.559,7.015 c 1.914,-2.195 4.883,-4.25 4.547,-9.465 -0.789,-0.347 -1.543,-0.847 -2.18,-1.363 -1.578,2.863 -3.16,5.777 -4.707,8.477 0.793,0.804 1.547,1.668 2.34,2.351 l 0,0 z m 8.406,3.692 c 0,-1.668 0,-3.348 0.137,-5.02 -0.848,-0.465 -1.695,-1.078 -2.543,-1.68 -3.395,5.645 -2.703,5.34 -2.985,10.047 3.555,0 2.383,-2.527 5.391,-3.347 l 0,0 z m 5.047,0.902 c -0.637,-0.688 -1.414,-1.711 -2.199,-1.711 l -3.274,7.551 c 0.332,0.66 0.637,1.16 1.086,1.695 3.121,-0.535 3.574,-2.359 4.387,-7.535 l 0,0 z m 1.82,7.469 c -1.738,3.058 -1.972,4.363 -2.074,6.847 0.524,0.586 1.078,1.18 1.731,1.774 2.285,-1.676 1.316,-9.703 0.343,-8.621 l 0,0 z M 459.27,174.656 c 0.632,1.067 1.414,2.016 2.179,2.949 13.809,-2.949 19.211,-1.406 33.684,2.25 -0.11,-3.437 -0.215,-6.972 -0.215,-10.519 l -18.219,-1.055 c -16.886,5.891 -16.886,5.891 -17.429,6.375 l 0,0 z m -67.586,80.512 c -5.93,7.559 -26.989,29.977 -26.989,39.187 11.313,5.333 21.5,-11.101 28.743,-19.812 17.105,-17.59 39.476,-28.234 61.421,-39.555 59.672,-29.043 59.672,-29.043 60.563,-29.754 -13.703,-18.535 -20.613,-23.144 -41.473,-26.074 -43.976,10.606 -56.605,38.828 -82.265,76.008 l 0,0 z m 64.937,114.754 c 6.137,-3.328 17.668,-3.914 26.664,-8.281 -0.887,-2.012 -2.308,-6.707 -3.855,-8.387 -12.387,5.906 -24.336,14.527 -32.344,25.144 3.516,4.883 12.156,4.207 17.879,4.844 0,-0.222 0,-0.461 0.101,-0.82 7.141,1.547 8.774,4.59 14.364,-0.102 l -2.629,-3.922 c -8.11,0 -21.262,2.61 -26.664,-3.183 11.203,-0.11 20.312,-0.945 32.367,-3.539 -2.5,-8.258 -21.27,-0.453 -25.781,0.707 -0.102,-0.824 -0.102,-1.653 -0.102,-2.461 l 0,0 z m 22.703,32.445 c 1.106,-2.594 11.313,-32.804 6.25,-27.402 -4.828,11.848 -11.84,17.617 -6.25,27.402 l 0,0 z m -20.398,-15.695 c -0.235,0.34 -0.426,0.594 -0.551,0.84 4.383,4.129 7.035,5.664 12.625,8.269 0.762,-1.187 1.633,-2.375 2.523,-3.558 -2.074,-3.762 -10.972,-4.957 -14.597,-5.551 l 0,0 z m -156.11,145.34 c -0.441,-0.84 -0.886,-1.684 -1.648,-2.035 -1.086,0.843 -2.184,1.546 -3.285,2.246 0.336,0.738 0.656,1.429 1.101,2.019 1.098,-0.125 2.102,-0.719 3.832,-2.23 l 0,0 z m -0.105,9.777 c -0.656,-0.351 -1.207,-0.703 -1.754,-1.051 l -2.969,1.778 0,0.929 c 1.867,1.535 1.313,1.535 4.828,-0.476 -0.105,-0.348 -0.105,-0.699 -0.105,-1.18 l 0,0 z m -20.398,-38.121 c 0.21,0.465 0.531,0.941 0.867,1.293 1.422,-0.688 2.84,-1.539 4.281,-2.363 0,-1.168 -0.996,-2.008 -2.074,-2.008 -1.442,1.074 -2.864,2.598 -3.074,3.078 l 0,0 z m 5.339,-12.113 c -0.539,-0.133 -1.125,-0.442 -1.523,-0.75 -2.219,2.379 -4.434,4.769 -6.656,6.988 2.648,2.848 6.949,-1.641 8.179,-6.238 l 0,0 z m -4.472,17.547 c 0,0.699 0,0.699 1.101,3.183 1.633,-0.941 5.043,-1.648 4.723,-5.312 -0.445,-0.243 -0.891,-0.477 -1.227,-0.828 -1.527,1.066 -3.07,2 -4.597,2.957 l 0,0 z m 13.722,-25.497 c -0.121,-1.3 -0.226,-2.605 -0.226,-3.898 -0.11,0 -0.235,-0.137 -0.344,-0.234 -3.727,2.121 -5.144,4.961 -6.902,6.132 l 0,-7.917 c 2.754,-0.817 5.929,0.371 5.593,-5.661 -0.32,-0.23 -0.636,-0.472 -0.976,-0.828 l -5.695,5.067 c -6.379,-22.188 -10.106,-48.043 -9.004,-72.012 5.015,3.785 5.015,3.187 11.738,2.035 1.758,12.75 2.961,26.41 6.902,37.406 3.282,-10.621 0.446,-24.558 -0.996,-36.605 -10.527,-2.465 -16.441,-5.664 -25.101,-9.07 -4.828,-10.403 -7.692,-15.481 -6.926,-30.325 1.207,-0.254 2.414,-0.605 3.621,-0.965 l 0,-1.437 c -4.832,-0.574 -5.594,-4.707 -7.117,-9.309 l -0.34,0 c -0.336,0 0.551,14.161 0.426,15.457 -10.532,24.793 12.855,60.446 17.664,83.813 0.445,7.574 3.961,30.105 9.219,33.285 2.75,-1.641 5.609,-3.293 8.464,-4.934 l 0,0 z m -41.156,-152.062 2.945,0 c 1.993,10.039 3.985,16.418 8.243,25.039 2.648,-0.144 5.273,-0.254 8.027,-0.488 -1.543,-12.981 -1.543,-33.289 -17.012,-37.071 -11.285,2.032 -5.59,43.098 -3.617,46.758 1.078,-0.703 2.199,-1.531 3.406,-2.363 0,-10.027 -1.437,-20.672 -1.992,-31.875 l 0,0 z m 0.996,40.969 c -0.441,-0.711 -1.097,-1.535 -1.648,-1.782 -5.383,1.899 -8.664,4.375 -12.16,6.969 0,0.606 0,1.188 0.105,1.793 5.043,-0.351 9.426,-1.187 13.703,-6.98 l 0,0 z m -4.066,13.566 c -0.973,0.735 -1.86,1.434 -2.731,2.031 0,0.563 0,1.161 0.11,1.649 0.437,-0.254 2.965,-1.086 3.828,-2.945 -0.422,-0.25 -0.863,-0.489 -1.207,-0.735 l 0,0 z m -19.192,-4.355 0.321,-2.02 c 0.57,0.473 1.097,0.824 1.648,1.188 5.172,-6.133 5.383,-19.707 -5.488,-19.707 -19.867,4.468 -12.938,18.054 3.519,20.539 l 0,0 z m -15.695,1.297 c -7.355,1.894 -9.851,7.199 0.887,7.199 1.633,-3.063 4.387,-5.781 -0.887,-7.199 l 0,0 z m 19.531,1.765 c 1.211,1.188 2.543,2.227 3.836,3.324 1.649,-1.097 2.305,-0.597 3.512,-4.14 -1.523,-1.188 -3.391,-1.301 -4.277,-1.547 -2.836,1.898 -2.836,1.898 -3.071,2.363 l 0,0 z m 3.957,11.106 c 1.317,0.832 2.633,1.629 4.051,2.347 0.887,-1.652 0.887,-1.652 1.442,-3.761 -0.446,-0.606 -0.79,-1.301 -1.125,-2.02 l -0.426,0 c -1.203,0.242 -2.414,0.488 -3.598,0.59 l -0.344,2.844 0,0 z m 3.625,-23.625 c 1.078,-0.59 2.289,-1.172 3.52,-1.746 0,-0.254 -2.313,-18.555 -3.625,-17.129 -5.82,12.168 -5.613,7.324 0.105,18.875 l 0,0 z m 48.703,14.297 c 0,-4.024 -8.898,-6.036 -11.843,-6.723 l -1.313,1.051 c 4.809,3.547 6.778,4.246 13.156,5.672 l 0,0 z m -3.73,2.355 c -1.863,-0.457 -7.352,-2.477 -8.348,-2.105 -0.211,0.453 -0.441,0.941 -0.652,1.296 3.832,1.993 5.039,3.996 9.996,3.649 l -0.996,-2.84 0,0 z m 1.211,-12.055 c -2.316,-2.84 -6.594,-4.945 -9.66,-4.945 l -0.977,1.406 c 3.18,2.492 6.121,6.852 10.637,3.539 l 0,0 z m -10.406,-9.55 c 0.847,-0.118 1.738,-0.465 3.601,-1.754 -0.234,0 -0.441,0 -0.551,-0.121 l -3.281,1.41 c 0,0.242 0.102,0.347 0.231,0.465 l 0,0 z m 4.918,-9.344 c -0.555,-0.586 -0.996,-0.938 -1.653,-0.938 -1.211,0.852 -2.308,1.543 -3.394,2.246 l 0,1.907 c 2.293,1.636 3.179,-0.469 5.047,-3.215 l 0,0 z m -3.18,-6.231 c -0.445,-0.351 -0.891,-0.722 -1.227,-1.074 -0.871,0.723 -1.628,1.426 -2.398,2.141 0,0.586 0,1.043 0.109,1.531 1.102,-0.84 2.289,-1.648 3.516,-2.598 l 0,0 z m -4.512,-2.48 c 6.375,-2.742 3.41,-6.629 3.071,-6.27 -3.942,2.727 -5.25,3.086 -3.071,6.27 l 0,0 z m 4.176,-13.809 c -0.219,-0.476 -0.445,-1.086 -0.656,-1.66 -1.106,0.242 -2.207,0.469 -3.18,0.574 -0.426,0.957 -0.785,1.789 -1.101,2.602 1.863,1.305 2.644,0.586 4.937,-1.516 l 0,0 z m -5.383,28.914 c -0.211,0 -0.426,0 -0.66,-0.113 -0.652,0.469 -1.309,0.945 -1.863,1.309 0,1.882 0.66,1.882 1.316,3.171 -1.527,0.118 -3.074,0.247 -4.492,0.247 -3.75,12.261 -1.652,16.996 1.523,28.445 7.481,2.492 14.622,5.074 23.176,5.074 0.215,-0.234 0.426,-0.582 0.633,-0.941 -7.328,-11.907 -21.055,-1.899 -19.633,-20.903 -0.972,-5.437 -4.574,-6.629 0.571,-10.039 0.109,-2.008 0.871,-3.523 -0.571,-6.25 l 0,0 z m -1.738,-3.3 0.316,-1.993 c -0.547,-0.496 -0.996,-0.957 -1.414,-1.55 -0.66,1.054 -1.211,2.109 -1.738,3.195 l 2.836,0.348 0,0 z m 5.719,-41.083 c 0,-0.605 0,-1.296 0.086,-2 -0.551,-0.492 -0.551,-0.492 -1.203,-0.492 -2.864,1.43 -3.758,3.188 -4.938,4.856 0.105,0.703 0.211,1.289 0.336,1.894 2.734,-0.605 2.734,-2.48 5.719,-4.258 l 0,0 z m -0.801,-8.132 -0.316,-2.598 c -0.555,0.105 -1.106,0.105 -1.657,0.105 -3.176,0.45 -2.519,2.364 -3.281,3.782 2.074,2.82 2.074,1.765 5.254,-1.289 l 0,0 z m -1.207,-12.043 c -3.606,2.215 -7.887,5.058 -7.887,8.465 2.863,0 8.434,-3.407 7.887,-8.465 l 0,0 z m -2.633,-7.09 c -1.078,0.105 -2.176,0.105 -3.281,0.105 -0.762,0.832 -1.524,1.653 -2.199,2.473 0.55,0.969 1.566,2.121 2.414,2.715 1.652,-1.512 2.754,-1.641 3.066,-5.293 l 0,0 z m -83.797,19.93 c -0.445,0 -0.89,0 -1.336,-0.106 -18.09,3.191 -25.207,37.774 -15.886,50.879 15.125,15.117 23.918,-37.664 17.222,-50.773 l 0,0 z m -16.015,59.984 c -0.551,1.184 -1.098,2.336 -1.653,3.43 0.555,0.804 1.207,1.535 1.867,2.246 0.207,-0.606 1.524,-7.575 -0.214,-5.676 l 0,0 z m -3.645,-4.848 c -0.734,1.907 -1.523,3.66 -2.184,5.442 1.45,1.297 1.45,1.297 1.868,1.297 1.441,-1.532 1.527,-8.024 0.316,-6.739 l 0,0 z m 68.574,-93.133 c -1.293,-3.906 -3.601,-20.769 -8.222,-20.769 -21.95,6.258 -43.555,20.309 -61.43,33.047 4.277,6.48 8.453,11.922 13.496,17.586 4.934,0 48.254,-20.418 56.156,-29.864 l 0,0 z m -79.316,10.86 c 17.437,-9.219 35.234,-21.367 53.98,-31.746 -0.449,-4.27 -1.738,-8.75 -3.386,-13.352 -0.321,0 -0.68,0 -0.891,-0.105 -20.406,8.828 -39.277,17 -56.941,28.797 0,6.589 4.277,11.804 7.238,16.406 l 0,0 z m -12.07,-12.742 c -8.11,7.441 -12.055,10.73 -16.332,19.707 3.414,5.078 2.308,9.207 4.722,14.043 7.246,-4.739 13.051,-8.848 20.063,-15.684 0,-4.023 -8.325,-18.066 -8.453,-18.066 l 0,0 z m 24.253,-27.5 c 11.739,6.25 48.704,-13.703 64.739,-18.899 7.008,-2.832 5.148,-4.492 1.738,-11.562 l -0.637,0 c -12.965,4.59 -58.492,14.621 -65.84,30.461 l 0,0 z m 40.27,-28.95 c 0,-2.945 -2.539,-14.39 -6.797,-14.39 -15.699,4.137 -31.269,12.879 -44.125,21.012 0,4.23 1.859,10.402 3.641,13.363 16.226,-5.559 30.586,-11.465 47.281,-19.985 l 0,0 z m 79.203,-36.714 c -0.445,0 -0.781,-0.098 -1.098,-0.215 -25.335,4.715 -51.457,10.972 -75.265,18.301 0.23,5.183 1.207,9.656 2.648,14.031 10.844,0 28.719,-7.774 40.27,-10.949 14.91,-1.903 42.875,4.335 33.445,-21.168 l 0,0 z m -43.785,31.777 c -1.523,3.301 -0.527,8.965 -0.316,11.328 25.777,0 51.875,-6.613 78.988,-7.336 1.972,-0.234 3.84,-0.234 6.359,-2 0,-3.43 0,-6.953 0.125,-10.5 -2.539,-0.457 -5.062,-1.062 -7.582,-1.66 -25.465,1.887 -54.183,1.301 -77.574,10.168 l 0,0 z m 43.684,26.902 c 0.101,-3.777 0.546,-8.113 0.101,-13.203 -0.336,0.11 -0.652,0.11 -0.976,0.11 -26.665,1.648 -49.059,7.07 -74.395,13.679 0.66,5.789 1.758,9.219 3.52,13.699 23.914,-6.023 47.171,-9.558 71.75,-14.285 l 0,0 z m -51.352,13.946 c 0,7.175 3.176,15.683 6.59,21.472 20.949,-0.828 44.082,-2.957 65.707,-6.023 2.863,-1.524 0.555,-25.262 0.344,-25.031 -23.813,2.5 -51.352,1.535 -72.641,9.582 l 0,0 z m 119.793,-18.332 c 0.551,-3.297 0.652,-7.293 0.23,-11.188 -5.148,0.125 -10.211,0.125 -15.253,0.125 -13.938,0 -37.411,-2.141 -49.141,2.004 l 0.316,13.445 c 16.797,0 48.825,2.949 63.848,-4.386 l 0,0 z m 57.375,-27.137 c -18.981,-5.789 -53.859,-7.539 -72.945,-7.539 -8.664,2.832 -6.036,8.613 -5.828,16.394 21.292,2.492 43.55,1.289 65.617,0.61 l 0,4.968 c -11.196,0 -38.399,-6.628 -38.399,9.778 2.418,1.648 5.489,0.594 8.985,0.23 -0.762,-1.285 -1.524,-2.594 -2.184,-4.031 0.555,-0.801 1.207,-1.629 1.867,-2.578 2.41,0 4.828,0 7.246,-0.117 l -0.656,6.496 c -1.336,0.23 -2.543,0.476 -3.73,0.594 26.656,4.23 23.351,1.777 40.027,-24.805 l 0,0 z m -29.078,35.539 -8.738,1.883 c -2.102,6.328 -6.372,15.468 -3.098,15.715 1.348,0.093 11.523,-12.063 12.855,-16.282 -0.359,-0.371 -0.683,-0.84 -1.019,-1.316 l 0,0 z m -66.598,21.973 c 16.145,0 32.047,1.882 48.723,-2.375 0.125,-5.79 0.23,-11.668 0.441,-17.586 -2.859,-0.461 -5.695,-1.067 -8.449,-1.664 -14.363,0.968 -28.512,0.597 -42.129,2.25 0,6.128 -0.641,15.71 1.414,19.375 l 0,0 z m 19.649,99.546 0,0.813 c 4.171,2.168 4.171,1.516 9.89,-2.461 l 0,-0.852 -1.847,-1.472 c -4.469,0.832 -6.051,2.16 -8.043,3.972 l 0,0 z m 1.527,-5.984 c 2.715,-0.828 5.434,-1.785 8.328,-2.766 -0.168,-1.14 -0.168,-2.468 -0.168,-3.757 -0.738,0.148 -1.488,0.148 -2.25,0.148 -4.074,0.672 -7.113,3.418 -5.91,6.375 l 0,0 z m -1.703,13.469 c 3.609,0 4.801,0.883 8.93,-2.258 -0.891,-0.742 -1.551,-1.465 -2.25,-2.168 -3.403,1.426 -5.649,2.91 -6.68,4.426 l 0,0 z m -0.195,4.719 -1.583,3.41 c 3.325,1.023 5.954,-0.957 10.075,-2.989 l 0,-2.125 c -0.41,0 -0.821,-0.152 -1.207,-0.277 -2.504,0.703 -4.879,1.43 -7.285,1.981 l 0,0 z m -2.262,9.371 c -0.164,1.058 -0.164,1.949 -0.164,2.836 3.105,0.523 5.234,-1.25 8.363,-4.071 -0.98,-0.699 -1.801,-1.582 -2.66,-2.472 -1.93,1.238 -3.742,2.472 -5.539,3.707 l 0,0 z m -1.141,6.8 c 0,1.071 0,2.118 0.16,3.004 3.086,-0.886 6.168,-1.789 9.36,-2.691 -1.68,-1.52 -4.496,-1.813 -5.571,-1.973 -1.433,0.606 -2.683,1.227 -3.949,1.66 l 0,0 z m -0.816,8.067 c -1.328,4.492 5.043,0.816 6.801,0.117 0,-0.461 0.109,-2.707 -0.782,-2.254 -2.078,0.695 -4.043,1.422 -6.019,2.137 l 0,0 z m -0.922,7.789 c 1.91,0.742 5.055,3.398 8.207,0.898 l 0,-1.64 -2.066,-1.313 c -2.59,0.133 -5.219,0.586 -6.141,2.055 l 0,0 z m -0.133,9.211 c 1.852,0 3.672,-0.133 5.543,-0.254 0.441,-0.891 0.914,-1.727 1.383,-2.727 -0.582,-0.504 -1.16,-1.136 -1.735,-1.75 l -3.808,0.758 c -0.445,1.36 -0.914,2.711 -1.383,3.973 l 0,0 z m -3.309,4.914 0,2.152 c 2.805,-0.64 5.633,-1.336 8.586,-2.152 -1.234,-1.356 -1.566,-1.856 -2.804,-1.856 -2.02,0.664 -3.883,1.329 -5.782,1.856 l 0,0 z m -2.882,9.621 c 0.375,0.551 0.722,1.137 1.066,1.527 2.508,-1.925 4.973,-4.011 7.473,-6.125 -0.547,-0.55 -1.055,-1.144 -1.434,-1.922 l -0.859,0 c -4.629,1.922 -4.629,4.036 -6.246,6.52 l 0,0 z m 6.691,1.543 c -2.039,1.477 -4.062,3.043 -5.945,4.391 l 5.179,1 2.977,-2.696 c 0,-1.867 -1.434,-2.547 -2.211,-2.695 l 0,0 z m -7.941,9.215 c 0,2.144 0.578,1.812 1.156,3.039 2.559,-1.227 5.129,-2.449 7.687,-3.828 -1.574,-1.68 -3.277,-1.211 -4.847,-1.391 -1.406,0.774 -2.703,1.543 -3.996,2.18 l 0,0 z m -1.391,6.117 c -0.199,0.867 -0.402,1.719 -0.402,2.406 2.258,0 4.707,0 7.16,-0.234 0.43,-0.852 0.824,-1.742 1.219,-2.867 -0.395,0 -0.789,0 -1.219,-0.215 -2.258,0.449 -4.508,0.672 -6.758,0.91 l 0,0 z m -2.223,7.047 c 2.981,1.015 5.266,1.812 8.829,-0.602 -1.313,-1.429 -2.075,-1.617 -3.2,-1.851 l -5.629,2.453 0,0 z m -0.629,7.758 c 2.325,2.484 5.282,-0.157 8.559,-2.465 -0.512,-0.524 -0.984,-1.067 -1.465,-1.778 -1.492,0.168 -2.961,0.168 -4.293,0.168 -1.019,1.434 -1.976,2.848 -2.801,4.075 l 0,0 z m 5.391,23.672 c 3.496,-4.84 8.223,-22.676 13.051,-25.614 1.418,-15.472 11.949,-28.234 16.351,-44.285 -3.515,-1.988 -10.21,-8.258 -12.523,-8.726 -3.617,3.902 -15.902,69.293 -16.879,78.625 l 0,0 z m 31.481,-94.2 c 0,-4.027 -3.836,-5.57 -6.825,-7.918 0,-3.648 -0.531,-7.918 -1.523,-12.293 -0.32,0 -0.551,-0.105 -0.762,-0.222 -0.34,0.117 -0.679,0.222 -0.887,0.359 -0.324,5.625 -4.3,20.727 -0.996,24.297 4.063,-0.688 6.473,-1.277 10.993,-4.223 l 0,0 z m -9.661,9.2 c -0.128,0.941 -0.211,1.886 -0.211,2.714 7.903,-0.711 12.708,-5.203 19.633,-11.089 -0.441,-0.477 -0.886,-0.965 -1.547,-0.965 -6.039,3.175 -11.945,6.258 -17.875,9.34 l 0,0 z m 1.907,-55.661 c -0.27,-0.742 -1.703,-1.804 -2.532,-2.129 -5.437,0.774 -4.742,2.129 -6.98,5.879 4.035,-0.312 5.043,-0.136 9.512,-3.75 l 0,0 z m -3.239,-5.39 c 0.996,-0.801 2.094,-1.653 3.2,-2.481 -0.454,-0.703 -0.875,-1.406 -1.317,-2.226 l -4.179,0 c -0.762,0.926 -1.411,1.883 -2.075,2.715 1.422,0.703 2.864,1.437 4.371,1.992 l 0,0 z m 4.848,-9.778 c 0,-0.73 -1.648,-3.921 -2.203,-3.671 -3.41,1.425 -4.047,2.941 -5.488,4.843 3.199,0.473 3.839,0.832 7.691,-1.172 l 0,0 z m 1.418,-7.32 c -0.105,-0.234 -0.211,-0.473 -0.34,-0.832 l -0.742,0 c -1.648,0.469 -3.301,0.93 -4.949,1.289 1.988,1.301 3.402,1.902 6.031,-0.457 l 0,0 z m 0.445,-6.613 c -0.238,-0.945 -0.89,-3.426 -1.527,-3.086 -1.883,0.73 -3.75,1.301 -5.5,1.894 -0.113,0.723 -0.113,1.426 -0.113,2.149 1.425,1.535 5.175,1.887 7.14,-0.957 l 0,0 z m -6.476,-5.188 c 0.886,0 1.648,0.344 3.511,-1.199 l 0,-0.598 c -0.89,-0.593 -1.734,-0.796 -2.414,-0.796 -0.445,0.117 -0.875,0.203 -1.211,0.203 0,0.84 0,1.691 0.114,2.39 l 0,0 z m 18.972,-7.8 c -1.207,-1.766 -21.839,-14.875 -22.05,-14.747 -1.657,2.715 -3.305,5.418 -4.828,8.02 7.906,4.715 17.562,13.828 26.878,6.727 l 0,0 z M 344.063,292.82 c 0.109,-0.84 0.234,-1.648 0.445,-2.488 -2.418,-3.289 -2.418,-3.289 -2.629,-3.176 -1.309,0.715 -2.645,1.289 -3.965,1.875 0.449,5.09 1.211,4.848 6.149,3.789 l 0,0 z m 16.695,-4.715 c 3.066,-4.14 4.492,-6.738 6.797,-12.859 -7.348,-2.246 -13.282,-2.726 -20.321,-2.832 -6.242,0.223 -12.043,1.031 -17.089,2.234 l 0.32,51.106 c -0.996,20.078 -13.051,140.961 -7.774,146.641 1.204,-2.727 7.664,0.226 8.872,-3.801 -0.317,-0.473 -0.657,-0.926 -0.993,-1.531 -3.629,1.882 -4.812,1.531 -7.988,1.531 1.973,-21.246 9.531,-40 10.953,-62.91 0.653,-5.664 3.621,-7.793 2.418,-15.582 0.547,-0.832 1.203,-1.641 1.86,-2.485 -5.59,-21.121 22.71,-63.379 5.488,-85.597 -2.863,-2.332 -5.699,-4.707 -8.434,-7.059 0,-3.535 0,-7.09 0.09,-10.637 14.277,-5.301 11.969,1.887 25.801,3.781 l 0,0 z m -33.711,215.942 c -0.387,0.367 -2.578,-0.578 -2.914,-0.762 -1.067,0.399 -4.133,1.848 -4.969,2.215 0.836,0.926 3.707,2.52 7.883,-1.453 l 0,0 z m -4.356,6.234 c -0.722,0.383 -3.414,1.367 -3.414,2.114 2.411,2.125 1.758,2.371 4.938,-0.457 -0.32,-0.594 -1.078,-1.54 -1.524,-1.657 l 0,0 z m -41.285,-87.746 c 2.246,2.422 6.567,0.664 9.254,-2.254 -0.433,-0.629 -0.754,-1.437 -1.039,-2.242 l -3.75,0 c -1.473,1.281 -2.973,2.406 -4.465,3.531 l 0,0.965 z m 7.953,-11.18 c 0,-0.16 0,-0.308 0.153,-0.484 -0.782,-0.516 -1.528,-1.16 -2.157,-1.848 l -6.539,4.016 c -0.152,1.352 -0.152,1.352 0.332,2.176 2.637,-1.188 5.422,-2.52 8.211,-3.86 l 0,0 z m 0.621,11.922 c -4.722,2.489 -7.457,4.946 -4.593,8.727 1.078,-0.699 9.636,-5.191 4.593,-8.727 l 0,0 z m -8.031,15.719 c 2.633,2.836 7.168,-1.121 10.684,-3.957 -0.168,-0.574 -0.336,-1.137 -0.336,-1.848 -0.715,0 -1.422,-0.218 -2.098,-0.386 -4.57,0.925 -6.152,4.109 -8.25,6.191 l 0,0 z m 5.078,9.52 c 2.114,-2.231 11.118,-13.465 4.473,-9.918 -1.441,1.027 -10.41,9.918 -4.473,9.918 l 0,0 z m 4.012,-1.364 c -2.742,4.227 -2.621,4.559 -2.305,8.086 2.145,-1.386 5.043,-4.05 5.043,-8.449 -0.941,0.176 -1.918,0.363 -2.738,0.363 l 0,0 z m -3.344,12.25 c 0.637,0.758 1.332,1.512 2.039,2.063 2.075,-1.504 4.149,-2.981 6.391,-4.668 0,-0.379 -1.004,-2.609 -1.539,-2.758 -2.406,1.84 -4.684,3.695 -6.891,5.363 l 0,0 z m 0.719,8.094 c 0.473,1.059 0.981,1.957 1.645,2.813 2.121,-1.047 4.265,-2.086 6.546,-3.153 0.157,-0.863 -0.664,-5.304 -1.015,-5.086 -2.465,1.93 -4.902,3.672 -7.176,5.426 l 0,0 z m 9.805,-8.941 c 1.719,-3.453 2.625,-8.707 0,-11.563 -0.121,0.137 -0.231,0.242 -0.231,0.356 -0.191,0.757 -3.16,11.207 0.231,11.207 l 0,0 z m 6.91,-17.684 c 4.828,-0.726 9.211,-1.199 14.809,-3.652 -0.11,-0.852 -0.11,-1.676 -0.11,-2.492 -2.859,-0.235 -5.695,-0.582 -8.449,-0.934 -2.313,0.234 -4.602,0.457 -6.906,0.594 -1.996,3.773 -0.785,3.875 0.656,6.484 l 0,0 z m 15.672,-14.16 c 0.887,-37.793 4.066,-76.262 2.734,-114.66 -0.531,-1.153 -1.078,-2.332 -1.523,-3.528 -4.809,-1.636 -10.848,-0.808 -15.364,-1.05 -2.515,0.691 -4.933,1.394 -7.347,1.992 1.207,39.656 2.519,79.336 3.836,119.004 6.504,0.226 10.101,0.476 17.664,-1.758 l 0,0 z m 8.117,72.746 c -0.184,-1.078 -0.363,-2.117 -0.363,-3.195 -0.563,0 -1.16,0 -1.754,-0.117 -2.258,1.195 -4.559,2.363 -6.711,3.539 0.594,0.597 1.148,1.187 1.93,1.777 4.175,0 5.91,-1.641 6.898,-2.004 l 0,0 z m 1.07,-8.797 c -0.777,-0.898 -4.043,-1.351 -5.324,-1.351 -0.504,0.714 -3.137,1.238 -3.48,1.769 0.964,0.672 5.48,2.098 7.269,2.098 l 1.535,-2.516 0,0 z m -6.746,-6.715 c 0.653,0.348 1.313,0.707 2.051,0.942 1.332,-1.176 2.754,-2.352 4.176,-3.641 -0.531,-0.48 -1.086,-1.07 -1.633,-1.676 -2.856,0.364 -5.379,1.676 -4.594,4.375 l 0,0 z m 7.992,-8.73 c -0.211,-1.399 -3.046,-2.602 -3.515,-2.602 -1.52,0.934 -3.051,1.903 -4.403,2.602 0.672,1.168 1.352,2.121 2.204,3.078 1.777,-0.957 3.769,-1.91 5.714,-3.078 l 0,0 z m -31.722,-180.02 c -2.074,1.875 -1.949,2 -1.735,3.41 5.149,1.532 24.571,6.141 25.993,-1.894 -8.008,-0.215 -17.438,-1.516 -24.258,-1.516 l 0,0 z m -8.028,200.696 c 0.817,0 3.883,-2.891 5.512,-4.286 0,-1.156 0,-2.281 0.137,-3.558 -0.363,0.144 -0.727,0.144 -0.957,0.144 -2.106,0 -4.578,7.317 -4.692,7.7 l 0,0 z m 0.364,6.437 c 1.882,2.02 2.449,0.762 5.871,-0.871 l 0.683,-5.434 c -0.226,0 -0.339,-0.132 -0.453,-0.265 -5.742,5.824 -5.742,5.824 -6.101,6.57 l 0,0 z m 8.461,3.801 c -0.481,0 -0.957,0 -1.43,-0.121 -1.883,1.765 -3.742,3.535 -5.516,5.293 0,3.035 6.399,-0.488 6.946,-5.172 l 0,0 z m -6.047,25.043 -0.657,0 c -0.21,0.117 -0.445,0.246 -0.554,0.246 0.344,0.941 0.679,1.883 1.105,2.824 1.543,-0.125 1.313,-1.281 0.106,-3.07 l 0,0 z m 1.105,-11.133 c 0.473,0.371 0.926,0.738 1.535,1.113 1.5,-1.5 2.567,-2.89 5.516,-4.41 -0.367,-0.637 -0.703,-1.258 -0.957,-1.883 l -0.813,0 c -3.043,2.246 -3.992,3.266 -5.281,5.18 l 0,0 z m 1.199,7.844 3.075,0 c 1.445,-1.785 4.492,-3.543 2.074,-6.168 -3.938,2.129 -3.832,3.312 -5.149,6.168 l 0,0 z m 9.981,16.273 c 2.648,0.957 3.726,1.657 7.476,1.418 4.602,-21.14 8.098,-74.488 2.711,-101.531 -2.394,0 -4.703,0 -7.011,-0.102 -1.653,0.707 -3.282,1.395 -4.934,2 -5.359,28.938 0.106,69.176 1.758,98.215 l 0,0 z m 12.73,-20.187 c 1.207,-1.301 4.067,-5.446 1.078,-6.957 -0.968,3.187 -2.605,5.301 -1.078,6.957 l 0,0 z m 2.68,1.422 c 1.629,-0.825 3.43,-1.641 5.231,-2.457 -0.145,-0.793 -0.145,-1.625 -0.145,-2.582 -0.582,0 -1.191,0 -1.656,-0.145 -1.715,0.363 -5.547,2.918 -3.43,5.184 l 0,0 z m 10.176,-9.637 c -0.793,-0.703 -1.41,-1.566 -2.082,-2.418 -2.059,1.375 -3.953,2.586 -5.856,3.75 2.082,1.043 6.989,1.668 7.938,-1.332 l 0,0 z m 5.316,-7.492 c -1.402,-1.082 -1.402,-1.082 -3.371,-1.625 -5.48,1.445 -11.805,2.086 -4.785,4.574 3.328,-1.266 5.395,-1.898 8.156,-2.949 l 0,0 z m 1.043,-4.946 c -1.226,-1.07 -2.437,-2.476 -3.535,-2.476 -2.949,0.699 -3.394,1.758 -4.387,3.187 3.282,0.934 4.723,2.703 7.922,-0.711 l 0,0 z m 2.617,-7.007 c -0.156,-0.332 -0.156,-0.805 -0.156,-1.313 l -4.605,-1.484 c -6.785,1.144 -6.192,2.66 -2.176,5.801 2.023,-1.012 3.094,-2.161 6.937,-3.004 l 0,0 z m 3.016,-8.36 c 0.41,-0.57 -2.031,-0.543 -2.879,-0.543 -3.238,0.465 -6.363,3.567 -7.473,2.071 3.063,4.117 7.594,2.339 10.352,-1.528 l 0,0 z m 2.969,-4.937 c -0.141,-1.074 -0.305,-2.321 -0.305,-3.543 -0.691,0 -1.406,0 -2.125,-0.153 -4.144,0.622 -5.184,-0.355 -7.164,1.45 0.824,1.714 1.855,3.25 2.848,4.793 2.125,-1.688 4.453,-0.832 6.746,-2.547 l 0,0 z m 2.168,-8.469 0,-1.281 c -1.699,-1.871 -3.957,-1.321 -6.024,-1.09 l -2.066,4.453 c 2.398,0.898 5.324,-0.398 8.09,-2.082 l 0,0 z m 3.14,-8.48 -8.613,0.164 -1.156,1.218 c 4.363,2.61 5.074,2.907 9.769,-1.382 l 0,0 z m 2.75,-5.125 c -1.164,-1.247 -4.863,-1.247 -5.675,-1.247 l -4.336,2.106 c 0.125,0.875 0.308,1.562 0.468,2.273 3.059,-1.058 6.27,-2.101 9.543,-3.132 l 0,0 z m 1.453,-6.883 c -0.316,-0.344 -0.66,-0.879 -0.976,-1.403 l -1.449,0 c -1.325,0.883 -2.625,1.782 -3.785,2.653 1.289,2.113 4.414,2.82 6.21,-1.25 l 0,0 z m 3.473,-7.297 -1.312,-1.07 c -3.184,0.371 -4.047,1.199 -5.364,2.609 0.743,0.953 1.969,3.187 3.18,3.187 0.762,-0.82 2.731,-2.234 3.496,-4.726 l 0,0 z m 3.731,-5.649 c -0.504,-0.535 -1.012,-1.242 -1.325,-1.953 l -1.136,0 c -2.618,1.055 -5.043,1.953 -7.5,2.809 1.953,2.105 6.367,0.867 9.961,-0.856 l 0,0 z m 2.964,-4.964 c 0,-0.438 0,-0.879 0.157,-1.317 -0.785,-0.851 -1.625,-2.035 -2.836,-2.035 -3.289,0.434 -4.781,0.566 -5.602,2.473 2.606,0.879 4.5,2.648 8.281,0.879 l 0,0 z m 1.075,-7.629 c -1.34,-0.352 -2.637,-0.719 -3.946,-1.243 -2.16,1.418 -4.961,2.641 -4.289,4.258 4.762,0 5.176,0.907 8.235,-3.015 l 0,0 z m 2.957,-4.395 0.465,-1.582 -9,0 c 0,0.543 0.187,1.07 0.343,1.383 2.731,0.199 5.457,0.199 8.192,0.199 l 0,0 z m 3.828,-7.172 c -0.223,-0.75 -0.223,-0.75 -3.016,-2.008 -1.66,0.965 -3.293,2.008 -4.679,2.774 0.898,0.719 1.839,1.461 2.789,1.976 1.621,-0.742 3.238,-1.8 4.906,-2.742 l 0,0 z m 19.465,-58.258 c -1.633,-0.722 -3.305,-1.418 -4.828,-2.253 -10.211,2.488 -12.184,3.32 -17.559,12.644 1.312,3.082 2.641,6.133 4.059,9.117 0.66,0.106 1.421,0.106 2.183,0.106 -0.207,-8.969 -2.941,-10.864 6.164,-14.758 0.215,2.84 -1.523,4.148 -2.304,4.937 0.55,3.782 3.07,6.481 4.804,9.215 -4.488,3.434 -5.801,5.914 -10.187,8.379 -4.617,-0.219 -14.129,-4.012 -16.989,-2.465 -0.128,0.707 -0.128,1.414 -0.128,2.012 7.011,5.664 12.183,4.934 21.187,5.539 -4.492,10.981 -14.387,13.09 -23.266,17.719 -0.101,0.582 -0.101,0.582 0.426,1.875 26.778,-7.195 33.785,-22.297 36.438,-52.067 l 0,0 z m -32.032,20.079 c 0.766,0 1.317,-0.372 2.735,-1.176 -2.414,-2.629 -3.727,-5.43 -5.488,-8.617 -0.317,0 -0.657,0 -0.993,-0.129 l -0.66,0 c 1.106,3.886 2.547,6.968 4.406,9.922 l 0,0 z m 9.43,2 c 0.106,0 0.215,0 0.442,-0.118 0,-3.789 -1.973,-9.922 -5.481,-12.273 -0.555,0.469 -1.105,0.957 -1.555,1.418 l 6.594,10.973 0,0 z m 24.348,-27.633 c -4.5,-3.535 -7.996,-5.071 -11.727,-7.063 2.5,-4.25 5.039,-8.613 7.672,-13.008 -0.445,-0.578 -0.871,-1.152 -1.207,-1.882 -8.769,0.234 -12.629,-1.516 -19.195,-2.485 0,-3.16 -6.25,-7.183 -9,-8.023 0,15.84 -4.387,29.773 -6.696,44.043 8.454,9.094 22.157,-8.391 28.641,-15 4.063,1.765 6.691,2.594 11.512,3.418 l 0,0 z m 5.172,-63.254 -1,0 c -13.5,2.707 -15.133,8.613 -22.594,19.367 l -11.734,0.352 c -0.125,0.203 -0.208,0.359 -0.336,0.457 18.218,8.371 7.031,-2.137 21.5,-1.192 -1.969,2.629 -3.938,5.09 -5.801,7.571 -5.703,-0.481 -11.422,-0.95 -17.012,-1.536 -0.555,0.586 -1.105,1.055 -1.652,1.536 8.34,2.585 11.308,4.023 21.601,4.023 l 3.629,-4.609 c 1.199,0.105 2.516,0.105 3.828,0.105 -8.636,8.281 -9.187,8.137 -19.187,9.453 l 0,1.172 c 3.09,2.488 12.18,1.309 17.219,1.309 7.128,-14.407 13.843,-20.071 11.539,-38.008 l 0,0 z m 63.398,-55.735 c -0.344,0.122 -0.531,0.122 -0.762,0.122 -9.32,3.203 -13.832,6.492 -20.632,12.039 21.394,13.093 19.21,17.121 24.359,-5.301 -3.156,-2.246 -2.965,-2.871 -2.965,-6.86 l 0,0 z m 16.563,-8.132 -0.864,0 c -5.933,2.004 -9.453,4.238 -13.289,7.324 0,7.89 24.918,7.531 14.153,-7.324 l 0,0 z m -45.289,23.718 c -10.887,6.371 -16.477,11.204 -24.465,19.621 9.3,4.231 18.195,3.059 28.511,2.696 1.422,-2.356 8.774,-14.153 7.563,-18.067 -3.281,-0.957 -9.426,-4.25 -11.609,-4.25 l 0,0 z m -32.489,26.457 c -1.32,1.192 -3.812,1.836 -3.73,3.516 0.379,7.539 17.535,1.816 25.976,0.723 -8.984,-1.629 -21.257,-4.239 -22.246,-4.239 l 0,0 z m 16.453,22.547 0.321,0 c 0.675,-3.086 -0.977,-4.488 -3.055,-7.449 l -0.988,1.777 c 1.179,1.895 2.41,3.77 3.722,5.672 l 0,0 z m -8.007,-8.511 c -0.227,0 -0.336,0 -0.422,-0.11 -2.965,4.356 0.871,7.551 2.84,10.508 0.656,-0.379 1.421,-0.723 2.203,-1.172 0,-0.715 -3.86,-7.473 -4.621,-9.226 l 0,0 z m -6.036,-2.832 -0.66,0 c -0.422,0.351 -0.886,0.593 -1.312,0.828 0,4.14 2.308,7.902 3.519,11.465 0.422,-0.391 0.867,-0.731 1.418,-1.083 -0.211,-4.132 -1.097,-7.433 -2.965,-11.21 l 0,0 z m -11.296,53.144 c 11.742,5.77 12.613,-2.851 22.058,-14.301 0,-3.797 -7.797,-23.258 -8.664,-22.781 -4.07,2.949 -2.098,4.961 -0.996,7.793 -4.277,8.27 -12.398,20.539 -12.398,29.289 l 0,0 z m 35.996,14.969 c 2.289,-1.531 4.707,-3.067 7.117,-4.707 0,0 -7.246,-49.707 -14.465,-45.813 -4.731,5.071 18.406,42.278 9.527,47.91 -6.586,-5.886 -11.078,-35.632 -16.691,-47.214 -1.734,0 -1.289,0.48 -1.633,0.832 2.652,12.507 6.043,41.797 16.145,48.992 l 0,0 z m 9.957,-5.664 c 2.734,-11.668 1.8,-26.946 2.308,-38.946 -2.84,-1.179 -5.57,-2.375 -8.344,-3.671 l -1.398,1.191 c 0.973,11.316 0.422,32.676 7.434,41.426 l 0,0 z m -7.243,11.219 c 0,9.457 4.512,14.753 13.618,14.289 3.961,-5.086 4.707,-9.102 5.488,-17.239 -1.422,-0.73 -2.836,-1.425 -4.149,-2.129 -7.925,0.832 -9.894,1.047 -14.957,5.079 l 0,0 z m 13.618,-9.676 c 8.117,-4.375 6.675,-21.961 1.757,-30.332 l -0.418,0 c -2.761,7.531 -2.21,21.472 -2.652,28.894 l 1.313,1.438 0,0 z m 9.765,9.074 c 8.434,0 1.524,-12.285 -0.234,-16.398 l -1.313,0 c -0.421,0.117 -0.871,0.234 -1.308,0.234 -0.77,8.391 -0.324,9.551 2.855,16.164 l 0,0 z m 19.407,-15.324 c -1.973,-19.129 -18.2,-57.391 -39.59,-60.574 -4.387,0.582 -8.668,1.167 -12.946,1.648 0,19.016 19.743,15.227 30.395,30.918 4.047,12.051 7.121,23.965 12.398,34.719 4.59,0 5.801,-2.493 9.743,-6.711 l 0,0 z m 9.679,-67.91 c -9.554,-7.059 -20.844,-16.868 -32.265,-18.77 -1.965,5.684 -4.278,12.063 -5.61,16.789 9.106,5.899 37.875,31.981 37.875,1.981 l 0,0 z m 17.434,4.269 c 1.078,-4.719 2.965,-9.445 1.969,-15.715 -6.25,-4.238 -26.438,-21.933 -31.161,-22.89 -3.074,5.656 -5.144,10.625 -7.351,15.566 5.066,3.191 34.125,24.797 36.543,23.039 l 0,0 z m -14.703,-51.328 c -12.285,15.535 0.66,17.918 13.832,26.543 0.976,0 1.949,-2.141 2.945,-3.906 1.973,-16.504 -4.492,-16.418 -16.777,-22.637 l 0,0 z m 15.679,0.684 -0.316,-12.297 c -0.449,0.144 -0.789,0.144 -1.106,0.144 -6.46,0.356 -10.425,1.391 -15.671,3.176 -0.871,2.781 14.484,9.531 17.093,8.977 l 0,0 z M 403.852,171.23 c 6.925,4.708 14.148,2.84 22.941,4.708 7.898,3.078 15.359,8.984 23.578,3.664 -12.605,-9.321 -20.844,-19.68 -36.414,-19.68 -6.48,2.441 -7.566,6.113 -10.105,11.308 l 0,0 z m -19.414,8.625 c 0.128,4.708 0.32,9.454 0.55,14.161 10.188,6.257 21.617,5.066 33.903,5.652 0.761,1.543 1.632,3.098 2.519,4.504 0.871,0 14.813,-14.16 17.453,-16.758 -18.656,-6.379 -30.074,-10.273 -48.175,-10.996 -2.079,1.187 -4.172,2.371 -6.25,3.437 l 0,0 z m -159.192,-3.917 c 1.211,3.449 2.543,6.855 3.856,10.167 23.257,-2.003 45.074,-10.031 69.117,-12.636 0.086,7.676 0.765,15.488 1.863,22.429 15.57,-0.46 73.254,5.071 77.871,-4.843 0.996,-4.239 2.102,-8.965 2.203,-14.141 -9.429,-9.578 -15.801,-19.5 -28.422,-21.726 -3.203,2.078 -18.453,13.093 -13.82,17.109 l 13.82,-1.758 c 1.543,-4.965 -0.429,-9.707 2.012,-14.191 3.262,2.968 3.387,9.445 4.043,13.593 4.598,0.696 8.426,1.043 14.258,0.598 -0.234,1.641 -0.445,3.289 -0.551,4.949 -24.469,2.95 -50.125,10.391 -71.641,-2.019 -35.21,-30.43 -25.679,3.301 -56.816,7.676 -5.93,-1.985 -12.414,-5.207 -17.793,-5.207 l 0,0 z m -50.777,14.074 c 1.422,6.355 2.84,10.508 5.379,15.574 13.922,-4.816 29.617,-9.316 43.215,-18.301 0.214,-3.547 0.55,-11.347 -2.204,-14.265 -13.046,5.293 -34.886,16.992 -46.39,16.992 l 0,0 z m -25.778,10.261 c 5.821,0 14.594,-7.91 20.293,-11.796 -2.308,-3.086 -9.765,-6.844 -12.836,-7.93 -7.796,5.215 -6.91,11.101 -7.457,19.726 l 0,0 z m -4.961,26.211 c 2.653,0 26.883,-13.562 30.633,-17.589 -0.992,-2.594 -6.59,-13.348 -6.925,-13.219 -10.083,7.781 -30.93,16.289 -23.708,30.808 l 0,0 z m -5.484,24.903 c 0.445,0.476 0.891,0.84 1.317,1.179 7.472,-6.961 12.96,-10.867 22.726,-15.925 -1.101,-4.024 -2.207,-8.036 -3.281,-12.168 -0.235,0 -0.34,0 -0.449,-0.11 -14.829,7.895 -19.743,10.492 -20.313,27.024 l 0,0 z m -3.703,25.996 c 8.426,-7.586 34.652,-19.969 38.828,-28.945 -3.289,-4.129 -3.496,-4.715 -7.672,-5.313 -9.215,4.363 -40.586,22.559 -31.156,34.258 l 0,0 z m 1.84,130.894 c -0.106,-9.914 -0.106,-9.914 -0.32,-9.797 -4.274,2.594 -8.875,6.27 -8.875,11.09 4.492,2.364 2.839,2.141 9.195,-1.293 l 0,0 z m 13.387,6.621 c -7.961,3.653 2.882,11.29 5.273,10.02 -0.973,-3.18 -2.625,-7.203 -5.273,-10.02 l 0,0 z m 16.796,1.395 c -1.414,-12.145 -6.691,-21 -12.41,-32.461 l 2.52,-0.352 c 0.996,-4.242 13.07,-48.507 10.101,-54.894 -6.562,2.832 -10.183,6.734 -15.882,7.215 0,-14.746 24.125,-16.883 29.062,-27.531 -3.391,-4.598 -7.902,-13.075 -13.07,-14.864 -36.52,19.602 -33.024,23.137 -27.516,61.145 3.598,2.969 5.356,2.832 10.527,3.672 1.418,-2.832 2.856,-5.657 4.383,-8.621 0.106,0 0.231,0 0.446,-0.11 3.285,3.535 -2.094,10.266 -3.2,12.981 -16.121,1.777 -24.339,10.039 -36.515,19.25 -0.11,0.699 -0.239,1.297 -0.239,1.89 l -9.871,1.758 c 0,0.953 0,1.785 0.125,2.594 5.911,-1.641 11.95,-3.281 17.985,-4.945 0,-0.598 0.109,-1.188 0.215,-1.887 2.093,-0.481 10.761,-4.024 13.726,-3.317 -12.965,16.778 -45.0975,19.957 -33.914,44.164 4.172,1.887 3.621,-4.964 5.723,-8.386 1.84,2.011 3.812,3.996 5.801,5.902 1.101,-0.594 2.207,-1.305 3.285,-1.992 0.105,-1.789 0.234,-3.547 0.445,-5.316 -0.656,-0.372 -1.316,-0.723 -1.969,-1.211 l 0,-2.348 c 7.899,0 7.793,7.086 10.973,-5.316 3.285,-6.145 9.555,-9.661 16.117,-13.918 2.969,1.058 -1.523,20.418 -2.074,22.421 -3.309,1.653 -6.59,3.2 -9.77,4.739 0,1.531 2.102,2.941 2.973,4.004 6.902,-2.121 11.289,-10.137 17.539,-16.528 6.25,1.762 9.004,7.551 13.07,12.762 0.418,-0.137 0.864,-0.238 1.414,-0.5 l 0,0 z m 1.106,-55.336 -0.785,0 c -0.66,0.352 -1.317,0.684 -1.867,1.035 0.21,2.957 1.335,4.602 2.753,6.738 l 1.758,0 c 0,-2.585 0.11,-4.835 -1.859,-7.773 l 0,0 z m 4.043,21.953 c 0,-1.777 -3.832,-11.57 -5.91,-9.34 -5.379,5.782 -3.305,21.371 1.758,26.805 2.734,-3.551 12.16,-13.703 4.152,-17.465 l 0,0 z m -5.91,106.11 c 2.414,2.605 8.328,10.527 11.187,11.468 0.547,-0.5 1.098,-0.941 1.653,-1.531 -1.336,-1.32 -10.426,-11.113 -11.524,-11.113 -0.445,0.476 -0.894,0.84 -1.316,1.176 l 0,0 z m 6.043,15.707 c -2.864,-5.899 -5.282,-10.032 -11.317,-12.864 0,5.192 5.383,14.282 11.317,12.864 l 0,0 z m 12.808,9.097 c -5.59,1.41 -8.875,22.313 -9.742,26.805 0.422,0.562 0.867,1.16 1.313,1.641 5.253,-4.266 9.871,-21.954 8.429,-28.446 l 0,0 z m -3.051,-49.238 c -2.539,0.582 -4.957,1.172 -7.367,1.668 -2.629,5.543 -5.804,12.617 -5.804,17.594 0.211,0.207 11.523,10.718 11.523,6.132 -4.828,-4.734 -7.035,-12.292 -1.992,-19.605 0.996,0.711 1.992,1.422 3.09,2.02 -0.336,7.429 1.086,12.039 2.633,18.285 0,8.504 -7.461,14.047 -10.11,20.664 0.555,0.445 1.106,0.812 1.656,1.195 4.704,-1.68 13.555,-14.656 14.594,-14.656 0.442,0.594 0.863,1.176 1.418,1.664 -3.617,12.848 -5.801,23.844 -7.246,35.641 l 1.316,1.765 0.555,0 c 9.867,-19.117 9.781,-54.058 -4.266,-72.367 l 0,0 z m 34.532,-86.641 -1.313,-8.863 c -4.808,2.477 -9.531,4.941 -14.258,7.324 -0.105,-0.117 1.758,-4.676 1.868,-5.312 4.507,-7.676 24.695,-16.297 34.125,-12.625 2.308,-1.653 4.171,-4.864 6.586,-8.274 0.66,0.606 1.418,1.055 2.183,1.543 4.492,-6.152 0.442,-47.468 8.789,-65.398 1.863,0 4.258,1.055 6.465,1.765 -4.727,21.856 -7.355,20.165 8.234,29.875 4.602,-4.14 -1.203,-22.433 -2.644,-29.875 0.652,-0.234 0.996,-0.234 1.312,-1.648 0.547,0 1.227,0 1.864,-0.117 0.765,1.406 1.652,2.84 2.543,4.14 0.761,-0.148 0.761,-0.148 4.933,-2.492 l 0.321,-5.675 c 5.062,3.324 6.484,37.062 5.824,41.925 -2.094,0.93 -4.176,1.856 -6.145,2.703 0.106,1.399 0.321,2.727 0.555,4.028 2.074,0 3.387,-2.27 5.254,-5.09 0.652,0.215 1.414,0.476 2.203,0.605 4.488,12.957 2.074,30.696 4.281,43.536 4.043,4.382 5.696,7.226 7.875,12.3 0.129,0 0.235,-0.129 0.446,-0.254 -2.965,-33.511 -3.942,-68.226 -5.489,-102.445 l 5.379,0 1.656,10.965 c 7.457,0 15.149,-0.106 23.364,-1.406 l 0.343,-13.34 c -0.57,0.098 -1.105,0.098 -1.656,0.098 -36.094,1.789 -78.992,4.023 -109.39,25.046 0,18.286 11.738,34.922 8.027,55.344 -1.231,0.11 -2.41,0.11 -3.535,0.11 -1.739,-10.129 -5.235,-45.442 -9.196,-52.622 -1.519,0.344 -2.961,0.696 -4.382,1.047 -1.332,15.242 0.761,30.703 -1.782,44.395 -9.64,20.078 -19.406,40.605 -27.726,59.961 -1.656,12.629 -1.547,24.808 -1.203,36.617 3.172,1.644 3.386,2.934 7.664,1.992 1.312,-2.582 2.836,-5.062 4.277,-9.098 4.617,-32.339 6.25,-39.304 32.348,-60.785 l 0,0 z m 8.683,87.121 c -24.906,-17.718 -24.906,-16.984 -17.879,-46.394 8.774,-9.918 10.747,-9.574 7.567,-24.43 -3.414,-1.066 -6.485,-2.601 -9.215,-3.207 -1.863,1.422 -3.621,2.836 -5.379,4.258 -0.871,9.098 -4.598,15.465 -7.887,22.793 -0.441,0.105 -0.781,0.227 -1.121,0.227 -0.402,8.5 -1.078,15.832 -2.179,23.027 8.109,7.793 30.394,21.348 28.406,33.039 3.301,3.551 9.426,-3.527 7.687,-9.313 l 0,0 z m 26.098,-56.671 c -3.727,-3.77 -9.531,-9.086 -15.23,-7.551 -4.618,3.187 -4.618,3.187 -5.063,3.187 3.285,-5.793 9.555,-14.383 -1.863,-16.277 -8.879,2.582 -5.379,15.332 -8.555,21.129 -29.516,44.039 2.754,64.801 32.258,31.035 -2.309,-5.082 -12.945,-6.621 -14.258,-8.859 2.523,-1.649 5.047,-3.399 7.563,-5.184 0,-1.031 -6.547,-9.512 -7.563,-10.77 6.484,-3.089 2.926,5.625 10.426,3.208 -4.363,-8.571 2.285,-4.918 2.285,-9.918 l 0,0 z m 3.199,-17.231 c -1.097,1.535 -2.203,3.078 -3.301,4.473 3.008,7.59 6.161,-5.469 3.301,-4.473 l 0,0 z m 1.293,14.52 c 1.547,-0.352 2.539,-0.352 4.067,-3.188 -0.422,-0.582 -0.868,-1.305 -1.293,-2.004 l -1.442,0 c -0.762,0.817 -1.523,1.528 -2.176,2.223 0.207,1.086 0.528,2.035 0.844,2.969 l 0,0 z m 2.328,8.273 c 0.871,-0.594 5.809,-3.316 3.731,-6.633 -3.094,2.371 -5.168,3.434 -3.731,6.633 l 0,0 z m 0.762,7.309 c 2.293,-0.828 3.605,-1.77 5.699,-5.211 -0.336,-0.45 -0.867,-1.039 -1.312,-1.039 -2.203,2.129 -5.149,4.238 -4.387,6.25 l 0,0 z m 3.797,8.91 c 1.812,-0.696 2.625,-0.696 3.535,-4.617 -1.441,-2.121 -1.441,-2.121 -1.723,-2.008 -1.16,1 -2.32,1.84 -3.507,2.715 0,3.214 0.125,2.218 1.695,3.91 l 0,0 z m 0.93,6.894 5.796,-4.172 c 0,-0.144 -0.121,-2.218 -0.523,-1.8 -2.312,0.957 -4.5,1.941 -6.687,2.925 -0.129,0.547 -0.129,1.106 -0.129,1.653 0.523,0.535 1.023,0.984 1.543,1.394 l 0,0 z m 5.058,0.711 -4.949,6.184 c 4.394,7.961 6.062,-7.371 4.949,-6.184 l 0,0 z m -2.582,15.278 c 1.168,0.203 2.461,0.379 3.789,0.379 0.637,-0.692 6.539,-5.809 1.957,-8.278 -5.082,3.16 -4.261,4.41 -5.746,7.899 l 0,0 z m 2.926,4.254 c 0.449,1.109 0.898,2.199 1.488,3.14 1.285,0 6.352,-3.765 3.61,-6.703 -1.739,1.23 -3.5,2.488 -5.098,3.563 l 0,0 z m 6.699,2.292 c -1.933,1.618 -3.863,3.04 -5.824,4.512 7.609,9.93 10.176,-3.082 5.824,-4.512 l 0,0 z m -1.258,16.079 c 0.891,-0.118 1.735,-0.246 2.754,-0.457 0.555,-1.196 0,-6.383 -1.332,-4.969 -1.316,1.89 -2.289,3.18 -2.519,4.019 0.359,0.453 0.675,0.95 1.097,1.407 l 0,0 z m 2.762,9.183 c 1.473,-1.847 4.809,-4.871 4.809,-8.762 -0.516,0 -0.926,-0.16 -1.344,-0.285 -2.793,0.711 -4.551,3.024 -6,4.473 0.648,1.578 1.316,3.164 1.992,4.574 l 0.543,0 0,0 z m 1.742,5.926 c 1.367,-0.656 2.711,-1.484 4.078,-2.301 0,-0.633 0,-1.301 0.145,-1.926 -0.293,0.164 -0.609,0.164 -0.902,0.164 -3.786,2.11 -3.786,2.11 -4.368,2.911 0.289,0.496 0.582,0.828 1.047,1.152 l 0,0 z m -0.222,34.109 c 0.996,-1.058 1.968,-2.109 2.964,-3.304 -0.23,-1.399 -0.339,-2.828 -0.441,-4.368 -0.555,0 -1.086,0 -1.527,-0.109 -3.2,0 -2.203,5.192 -2.313,6.613 0.426,0.469 0.871,0.832 1.317,1.168 l 0,0 z m 5.929,0.125 c -2.754,2.493 -3.09,3.075 -3.73,5.539 0.215,0.364 0.535,0.723 0.875,1.067 1.097,-0.11 2.203,-0.344 3.41,-0.57 0,-1.184 0.105,-6.372 -0.555,-6.036 l 0,0 z m 1.551,-7.797 c 1.523,3.329 1.731,2.727 4.91,-0.218 0,-0.606 0,-0.606 -0.972,-2.246 l -0.532,0 c -1.226,0.816 -2.328,1.64 -3.406,2.464 l 0,0 z m 3.051,15.731 c -0.996,1.516 -1.871,3.055 -2.735,4.59 2.622,7.211 5.145,-3.309 2.735,-4.59 l 0,0 z m 3.961,-10.648 c -1.106,-0.715 -1.106,-0.715 -1.207,-0.461 -2.633,3.293 -2.102,2.839 -0.895,5.886 0.66,0 2.418,-3.304 2.102,-5.425 l 0,0 z m -0.66,22.449 c 0.336,-0.953 0.976,-2.246 1.312,-4.278 -0.336,-0.109 -0.57,-0.214 -0.781,-0.445 -1.973,2.094 -1.078,3.406 -0.531,4.723 l 0,0 z m -15.149,14.031 c 4.156,5.555 14.703,9.437 19.746,1.312 -17.562,-1.421 -17.562,-1.421 -19.746,-1.312 l 0,0 z m -38.273,-2.602 c 3.386,2.129 23.683,6.372 26.203,2.231 -8.774,-1.863 -16.992,-3.524 -25.102,-4.234 -0.445,0.71 -0.785,1.417 -1.101,2.003 l 0,0 z m -2.864,9.457 c 2.735,3.879 21.715,6.364 27.54,6.95 l 3.179,-3.422 c -9.875,-4.594 -20.086,-4.367 -29.613,-4.946 -0.445,0.477 -0.766,0.95 -1.106,1.418 l 0,0 z m 31.586,14.532 c -0.421,-0.848 -0.867,-1.684 -1.312,-2.641 l -7.797,-0.336 c -0.191,-0.348 -0.316,-0.699 -0.426,-1.051 -5.14,1.77 -8.89,-2.73 -13.699,-2.73 -7.141,0.383 -7.141,0.383 -8.242,0.726 2.289,5.879 25.121,10.266 31.476,6.032 l 0,0 z m 4.071,-3.918 c 2.41,-1.641 4.828,-3.293 7.347,-5.074 l 0,-2.61 c -2.519,-1.883 -4.937,-3.769 -7.347,-5.781 l -1.657,1.07 c -0.101,3.899 -1.312,10.281 1.657,12.395 l 0,0 z m 24.675,3.765 c -2.417,-1.746 -10.632,-6.476 -11.187,-6.222 -3.957,2.218 -7.898,4.476 -11.711,6.586 1.945,2.129 18.516,0.734 22.898,0.734 l 0,-1.098 z m 7.583,-2.824 c 0,-1.758 -0.34,-11.207 -1.993,-9.437 -2.519,1.074 -5.039,2 -7.558,2.953 -0.106,0.84 -0.215,1.656 -0.215,2.351 2.629,1.895 5.254,3.785 7.883,5.575 0.547,-0.5 1.207,-0.954 1.883,-1.442 l 0,0 z m 13.261,15.942 c -2.289,-0.942 -4.597,-1.895 -6.801,-2.84 -11.968,2.136 -13.281,15.488 -3.179,19.953 0,4.004 0,8.039 0.109,12.055 -5.488,0 -10.973,0 -16.461,-0.125 -6.14,-15.352 -33.23,9.457 -7.012,14.976 4.938,-2.101 5.274,-1.039 7.563,-7.059 5.273,0 10.527,0 15.91,-0.117 -0.109,4.696 -0.211,9.43 -0.211,14.153 -23.262,9.32 22.942,34.007 11.074,1.195 l -2.964,-1.426 c -0.125,-4.609 -0.125,-9.226 -0.125,-13.922 4.41,0.117 8.918,0.117 13.406,0.117 2.633,8.508 9.156,7.395 15.914,4.485 6.141,-16.652 -9.664,-23.133 -15.359,-12.402 -4.723,0.125 -9.344,0.125 -13.961,0.125 0,-4.122 0,-8.395 0.125,-12.633 6.8,-2.844 3.945,-10.871 1.972,-16.535 l 0,0 z m -2.941,-16.29 c 0.422,-0.703 0.844,-1.539 1.293,-2.351 -0.871,-0.953 -2.074,-2.246 -2.949,-2.246 -8.899,0.711 -5.485,5.082 1.656,4.597 l 0,0 z m 0.762,-13.222 -6.59,-1.77 c -0.446,0.7 -0.762,1.305 -1.102,1.887 0.867,0.48 9.11,4.48 7.692,-0.117 l 0,0 z m -2.649,18.41 c -1.422,0.602 -2.734,1.07 -4.066,1.547 -1.231,8.058 10.082,1.676 4.066,-1.547 l 0,0 z m 9.875,-25.605 c 0,-2.368 -0.109,-2.961 -1.766,-5.543 -7.328,0 -14.574,0 -21.816,-0.137 -0.762,3.07 -0.441,3.312 0.445,5.328 5.356,0.473 18.09,3.07 23.137,0.352 l 0,0 z m 0,-12.52 c -0.984,0.238 -1.871,0.355 -2.734,0.473 0.336,0.824 0.652,1.539 1.097,2.234 1.102,-0.461 2.52,-3.18 1.637,-2.707 l 0,0 z m 3.742,-7.605 c -3.699,1.386 -6.019,3.113 -5.437,5.246 1.554,0.453 2.711,-0.176 5.234,-1.399 -1.43,-1.972 0.613,-3.847 0.203,-3.847 l 0,0 z m 3.973,-4.168 c -0.356,0 -0.523,-0.192 -0.734,-0.403 -1.989,0.817 -3.754,1.551 -5.571,2.145 0.352,0.57 0.692,1.164 1.078,1.543 1.602,-0.571 3.414,-1.16 5.227,-1.95 l 0,-1.335 z m 4.012,-4.332 c -0.141,-0.469 -0.278,-0.958 -0.278,-1.563 -1.715,-0.156 -3.261,-0.305 -4.863,-0.625 l -5.148,3.691 c 0,3.36 9.515,-1.035 10.289,-1.503 l 0,0 z m 4.394,-6.52 -0.515,-1.066 c -3.024,0 -6.047,0 -8.911,-0.168 l -1.199,1.234 c 3.903,2 4.551,2.355 10.625,0 l 0,0 z m 2.348,-4.91 c -1.238,-1.153 -2.922,-2.473 -4.141,-2.473 -1.094,0.672 -2.133,1.32 -3.047,1.82 0.621,1.157 1.211,2.297 1.953,3.297 1.094,0 2.926,-1.136 5.235,-2.644 l 0,0 z m 4.469,-5.985 c -1.657,-1.183 -2.645,-2.253 -4.383,-2.253 -1.758,0 -2.313,2.253 -2.418,2.609 2.519,1.293 3.074,2.476 6.59,1.531 0,-0.59 0.101,-1.18 0.211,-1.887 l 0,0 z m 5.484,-5.918 c -5.93,-3.304 -5.93,-3.304 -6.48,-3.304 -2.524,2.14 -2.075,2.14 -0.661,4.035 2.313,0 4.625,-0.137 6.93,-0.25 0,-0.106 0.106,-0.234 0.211,-0.481 l 0,0 z m 3.234,-6.449 c -2.629,-1.019 -6.898,-3.113 -8.23,-3.113 -0.551,1.059 -0.961,2.094 -1.332,2.93 3.676,1.246 5.379,2.484 9.562,0.183 l 0,0 z m 3.942,-5.672 c -0.141,-0.796 -0.239,-1.746 -0.239,-2.679 -2.644,-0.137 -5.269,-0.422 -7.746,-0.664 -0.625,0.804 -1.25,1.464 -1.879,2.14 2.625,2.805 5.489,2.559 9.864,1.203 l 0,0 z m 3.875,-9.117 -8.817,0 0.43,2.399 c 2.691,0.172 5.523,0.332 8.387,0.332 l 0,-2.731 z m 3.058,-2.758 c -1.394,-1.004 -1.394,-1.004 -6.152,-2.711 -1.086,0.688 -2.187,1.36 -3.32,1.875 2.531,0.836 5.215,1.02 9.472,0.836 l 0,0 z m 0.7,-10.328 c -1.762,0.93 -3.516,1.871 -5.145,2.836 0,14.098 12.645,-6.758 5.145,-2.836 l 0,0 z m 6.859,-1.511 c 0,-0.68 -0.961,-5.711 -2.039,-5.215 -2.645,1.008 -4.055,2.363 -4.992,3.203 0.488,0.824 4.695,2.863 7.031,2.012 l 0,0 z m 5.48,-11.27 c -1.543,0.145 -3.082,0.145 -4.511,0.145 -1.078,0.894 -2.082,1.652 -3.059,2.418 3.949,2.375 2.953,3.136 7.274,-0.309 0,-0.758 0.132,-1.527 0.296,-2.254 l 0,0 z m 3.563,-4.625 c -1.879,-0.391 -3.727,-0.926 -5.41,-1.461 -1.856,0.746 -3.535,1.301 -5.196,1.816 0.329,0.911 0.817,1.833 1.301,2.532 3.895,0.355 4.571,0.515 9.305,-2.887 l 0,0 z m -4.734,-8.5 -3.036,3.176 c 9.227,5.347 12.868,1.082 3.036,-3.176 l 0,0 z m 9.785,1.395 c 0,-4.34 -6.059,-3.278 -3.879,-2.973 -0.692,0.176 -3.289,-0.707 -3.887,-0.5 l 4.234,3.961 c 1.461,0 1.899,-0.332 3.532,-0.488 l 0,0 z m 4.453,-7.829 c -2.141,-1.082 -2.141,-1.082 -3.281,-1.082 -5.465,1.782 -5.465,1.782 -5.782,2.305 1.457,1.535 10.485,3.922 9.063,-1.223 l 0,0 z m 3.668,-4.148 c -7.184,-2.102 -7.184,-2.102 -8.719,-2.102 -0.473,0.489 -0.91,0.977 -1.387,1.305 2.598,0.797 6.289,3.293 9.953,2.641 0,-0.532 0,-1.153 0.153,-1.844 l 0,0 z m 4.894,-8.746 c -4.922,0.719 -7.402,1.789 -9.695,3.57 10.398,2.641 9.855,-3.726 9.695,-3.57 l 0,0 z m -3.953,-4.274 c -0.39,0.407 -0.773,0.809 -1.015,1.211 3.796,1.368 4.312,2.067 9.246,-0.121 -2.032,-2.187 -6.211,-1.09 -8.231,-1.09 l 0,0 z m 4.863,-16.152 c 6.375,0 12.176,4.133 19.211,0.363 -1.082,-6.683 2.375,-13.05 0.426,-20.656 -2.859,0 -4.808,2.238 -6.144,3.309 l 0,0.832 c 2.207,1.875 2.308,1.992 5.718,2.215 -0.445,0.957 -0.867,1.898 -1.312,2.734 -4.301,0.824 -9.109,1.648 -12.074,-0.117 5.043,-4.969 11.394,-16.66 16.441,-24.328 1.649,0.129 3.301,0.129 4.949,0.129 l -3.3,3.187 4.621,4.945 c 0.437,-0.105 1.207,-0.449 2.41,-1.757 -3.301,-8.039 -0.446,-9.7 -8.11,-14.766 -0.445,-4.258 -3.199,-31.516 -7.136,-27.266 -7.801,9.91 -13.395,21.731 -23.043,9.668 l -1.203,1.309 c 3.066,2.48 6.132,4.961 9.332,7.312 -1.207,1.079 -2.418,1.996 -3.52,2.942 l 2.969,2.137 c -3.945,16.988 -5.055,30.578 -15.371,43.085 -3.199,2.372 -16.672,11.938 -17.438,13.59 2.184,0 6.383,-1.898 9.664,-1.898 -6.593,25.254 -24.465,49.707 -28.535,71.887 13.387,-10.161 22.602,-45.192 38.172,-55.247 -0.105,-0.816 -0.215,-1.64 -0.215,-2.582 6.258,-3.785 7.906,-13.101 13.488,-21.027 l 0,0 z m 21.075,-25.609 c -0.657,0.605 -1.332,1.187 -1.864,1.765 0.532,1.887 0.766,1.668 2.946,0.946 0,-0.707 0.109,-1.422 0.234,-2.106 -1,-0.496 -0.551,-0.605 -1.316,-0.605 l 0,0 z m -13.176,29.742 c -1.738,-0.352 -3.496,-0.836 -5.145,-1.305 -0.449,0.606 -0.89,1.196 -1.312,1.664 1.203,0.825 2.391,1.653 3.723,2.375 0.871,-0.824 1.761,-1.793 2.734,-2.734 l 0,0 z m 20.086,35.672 c 29.187,-3.676 28.848,-8.867 27.875,-39.805 -1.652,-14.394 -10.211,-21.957 -22.606,-24.074 l -6.691,1.062 c -0.109,2.129 -0.109,4.141 -0.109,6.133 1.738,0.844 3.496,1.653 5.254,2.383 0,5.293 -4.614,3.926 -4.614,5.637 4.614,4.965 11.414,-4.242 9.887,5.672 l -10.648,0 c 0,5.722 2.964,4.293 2.304,8.504 -5.484,0.347 -10.867,0.609 -16.246,0.828 0,14.984 7.688,22.058 15.594,33.66 l 0,0 z m 54.074,-11.113 c -4.699,-6.833 -9.867,-39.536 -22.812,-39.536 l -0.317,0 c 0,37.301 7.117,49.45 -29.508,54.43 -0.996,1.512 -1.652,3.051 -1.652,3.738 14.699,9.469 60.012,3.68 76.238,-1.882 -7.672,-5.426 -14.937,-10.844 -21.949,-16.75 l 0,0 z m 26.672,-24.305 c -0.211,0 -0.445,0 -0.656,-0.129 -2.414,3.18 -3.856,5.898 -4.934,8.391 0.106,0.101 0.215,0.101 0.317,0.101 0.886,-1.047 6.351,-5.312 5.273,-8.363 l 0,0 z m 13.047,-18.781 0,2.945 c -1.309,0.723 -2.516,1.43 -3.727,2.019 l 0,1.414 c 1.547,0.469 2.844,-0.246 5.043,-1.539 -0.976,-8.617 -4.176,-9.316 -10.652,-12.16 -0.43,0.239 -0.852,0.461 -1.32,0.598 7.101,16.641 2.168,2.148 10.656,6.723 l 0,0 z m 27.539,19.363 c 1.758,-23.024 -27.66,-28.332 -36.875,-46.301 4.187,0 26.246,10.859 27.457,9.57 -10.66,-8.625 -24.707,-22.175 -37.859,-23.957 -1.657,1.782 -3.305,3.43 -4.942,5.071 -3.515,-2.461 -11.836,-30.086 -11.836,-35.274 l 3.602,0.344 c 2.308,8.133 4.719,16.172 7.136,24.195 2.735,-0.367 5.59,-0.699 8.454,-1.179 2.074,-15.098 -0.446,-35.301 -1.418,-51.954 -2.098,-1.757 -12.075,-10.144 -13.965,-9.199 -2.305,4.133 -4.594,8.25 -6.797,12.403 4.957,4.484 10.332,9.668 15.039,14.738 -6.484,6.98 -30.059,-21.711 -36.645,-14.609 8.559,19.824 23.938,65.964 37.641,84.386 -2.098,11.571 -17.879,24.321 -14.594,30.696 5.7,-3.063 16.887,-13.801 22.918,-13.454 3.094,6.485 5.172,11.918 11.313,15.219 1.082,-0.59 2.179,-1.172 3.387,-1.883 l 0.679,-5.91 c -10.097,-5.199 -13.176,-11.808 -16.031,-24.062 12.621,-8.16 21.391,21.121 23.043,21.121 1.762,-1.535 2.074,-2.121 5.359,-1.305 1.442,5.68 -2.285,6.863 1.442,10.867 l 3.515,-0.711 c 0,-1.64 0,-3.418 0.082,-5.191 3.414,2.363 4.856,3.656 7.141,7.555 0.887,-0.36 1.762,-0.707 2.754,-1.176 l 0,0 z m -52.981,-19.246 c 0.977,0 1.973,0 2.95,-0.117 -0.551,5.425 -10.082,13.113 -13.368,13.113 3.286,-4.016 7.012,-7.922 10.418,-12.996 l 0,0 z m 2.184,-96.457 c -0.66,1.074 -1.207,2.129 -1.758,3.203 -4.828,-0.703 -5.144,-0.703 -7.012,-5.539 0.532,-0.84 1.211,-1.778 1.868,-2.735 1.965,0 5.59,2.84 6.902,5.071 l 0,0 z m -71.957,142.269 0,-3.187 c 8.77,0.101 17.539,0.23 26.332,0.23 -10.344,7.317 -15.914,5.188 -26.332,2.957 l 0,0 z m -0.555,-8.867 c -0.105,-1.059 -0.226,-2.129 -0.226,-3.18 4.746,0.34 5.926,3.465 8.789,-1.765 -1.078,-0.953 -2.203,-1.887 -3.305,-2.965 0.442,-0.816 0.891,-1.75 1.336,-2.699 3.727,0 7.434,-0.145 11.289,-0.262 l 0,2.609 -2.652,0.352 c -1.86,3.09 -0.629,4.023 0.109,6.269 1.332,0.102 2.754,0.243 4.192,0.243 l 0,2.586 c -10,2.363 -10.864,1.765 -19.532,-1.188 l 0,0 z m 7.672,-12.266 c -0.762,-1.07 -1.312,-1.675 -1.312,-3.664 4.175,0.129 8.343,0.231 12.621,0.231 -3.852,1.176 -7.582,2.363 -11.309,3.433 l 0,0 z m -19.086,-10.644 c -0.867,-1.406 -1.738,-2.828 -2.519,-4.34 l -7.356,0.344 -0.652,-1.442 2.308,-2.093 c 3.938,0.226 7.903,0.359 11.969,0.445 l -2.988,7.086 -0.762,0 0,0 z m -97.965,197.859 c -7.218,14.407 -19.867,-1.41 -6.375,-6.25 4.2,1.41 4.493,1.758 6.375,6.25 l 0,0 z m 0,49.114 c -3.937,7.32 -9.105,7.55 -12.601,0 1.738,-3.789 1.207,-3.653 6.226,-5.547 3.539,0.953 4.727,1.894 6.375,5.547 l 0,0 z m 14.047,-24.911 c 1.629,-3.656 1.317,-4.48 6.25,-6.238 14.262,3.75 -0.445,21.481 -6.25,6.238 l 0,0 z m -43.019,-0.703 c 0,14.758 -22.16,0.946 -5.805,-5.535 3.305,0.336 4.488,2.945 5.805,5.535 l 0,0 z M 236.238,437.32 c -1.863,0.942 -2.754,0.352 -3.64,0.352 -0.766,2.129 -1.528,4.141 -2.184,6.133 -5.723,2.031 -11.184,-4.95 -11.184,-10.731 0.977,0.953 1.969,1.899 2.965,2.711 0.868,-0.711 1.754,-1.535 2.625,-2.363 0,-1.067 -1.652,-2.707 -2.519,-3.906 0.976,-0.457 2.078,-0.922 3.179,-1.516 4.598,2.598 7.118,4.945 10.758,9.32 l 0,0 z m -25.254,0.7 c 4.52,0 12.965,8.386 18.329,11.23 -0.657,1.172 -1.313,2.234 -1.868,3.313 -7.773,0.933 -13.707,-8.161 -16.461,-14.543 l 0,0 z m 0.661,-28.555 c -11.184,16.746 -12.391,18.289 -12.813,36.594 -14.047,-10.985 5.356,-35.993 9.637,-50.993 0,-0.125 0,-0.242 0.105,-0.378 3.305,1.445 3.071,12.402 3.071,14.777 l 0,0 z m 12.414,-57.5 c -5.168,-7.434 -5.168,-31.738 -5.168,-40.969 0.105,0 0.23,0 0.445,-0.098 0,-7.324 -4.176,-9.804 4.277,-13.933 0.235,0 0.551,0 0.895,-0.129 1.73,17.461 4.148,36.23 2.621,53.008 -1.098,0.715 -2.094,1.406 -3.07,2.121 l 0,0 z m 6.902,0.242 c 0.234,-18.887 -0.547,-39.199 1.637,-58.894 1.312,0.093 2.754,0.203 4.172,0.203 -1.207,19.621 -2.395,39.199 -3.516,58.691 l -2.293,0 0,0 z m 4.391,0.93 c 0,-20.305 3.832,-41.289 6.691,-62.199 0.996,-0.458 2.078,-1.055 3.176,-1.641 0.234,0 0.426,0 0.66,-0.117 -1.629,21.816 -3.18,44.004 -8.324,64.425 -0.785,-0.109 -1.547,-0.214 -2.203,-0.468 l 0,0 z m -82.383,37.422 c 4.492,4.968 8.871,9.097 7.562,15.578 -4.281,-2.231 -6.25,-10.356 -7.672,-15.199 0,-0.137 0,-0.254 0.11,-0.379 l 0,0 z m -17.457,16.531 c -4.532,1.211 -0.59,3.887 -5.692,-0.231 0.762,-0.929 1.645,-1.875 2.52,-2.828 0.652,0 2.519,2.36 3.172,3.059 l 0,0 z m 47.726,-206.817 c 0,-3.3 0.762,-4.726 2.86,-8.378 0.996,0.703 2.078,1.289 3.179,1.894 -0.339,7.539 -1.207,8.367 -6.039,6.484 l 0,0 z m 124.09,-7.91 c -1.223,-1.406 -2.433,-2.961 -3.64,-4.492 1.308,-1.172 2.644,-2.48 4.066,-3.769 0.652,0 0.652,0 5.484,2.238 0.45,1.66 -0.656,4.121 -0.656,4.265 l -5.254,1.758 0,0 z m 84.567,-3.3 c 0,-2.586 2.304,-4.024 5.39,-4.833 1.422,0.211 2.844,0.333 4.278,0.45 0.316,1.66 0.214,3.32 0.214,3.797 -3.839,1.882 -7.027,2.48 -9.882,0.586 l 0,0 z m 103.238,48.769 c 0.992,3.867 0.125,3.777 -1.637,6.016 -4.277,-0.235 -4.957,-3.543 -6.371,-3.543 1.227,-1.321 2.41,-2.727 3.621,-4.141 1.418,0.574 2.859,1.172 4.387,1.668 l 0,0 z m -12.844,14.148 c 2.418,5.176 1.867,4.125 -0.547,7.661 l -5.043,0 c -0.886,-1.387 -1.648,-2.93 -2.41,-4.473 0.969,-1.184 1.965,-2.492 3.07,-3.781 1.649,0.246 3.301,0.476 4.93,0.593 l 0,0 z m -20.73,14.739 c 0.546,1.687 1.121,3.195 1.648,4.726 -4.176,6.387 -3.621,2.852 -9.766,-0.925 0.997,-1.165 1.969,-2.493 2.965,-3.801 l 5.153,0 0,0 z m -23.262,103.894 c -4.176,-6.718 -4.574,-5.945 1.207,-12.32 1.965,0.242 4.066,-0.18 6.141,-0.07 2.418,3.898 3.519,6.027 3.179,10.625 -4.918,2.492 -5.804,2.246 -10.527,1.765 l 0,0 z m 9.996,-2.715 c -0.445,-3.648 -0.871,-5.183 -3.074,-8.378 l -6.25,0.441 c -5.61,10.019 0.765,11.715 9.324,7.937 l 0,0 z m -1.652,-0.808 -6.586,1.758 -2.289,-3.899 c 1.968,-1.402 4.047,-2.828 6.14,-4.363 l 0.66,0 c 1.864,2.961 2.075,3.664 2.075,6.504 l 0,0 z m -6.137,0.691 c 1.859,-0.34 3.746,-0.84 5.586,-1.285 0,-1.547 -0.527,-2.844 -1.758,-4.738 l -0.527,0 -4.942,3.535 1.641,2.488 0,0 z M 330.039,257.645 c -0.68,-1.54 -1.332,-3.192 -1.891,-4.84 1.657,-1.172 3.415,-2.473 5.172,-3.782 1.422,0 4.282,1.653 6.25,2.364 0,1.894 -3.179,5.676 -3.281,5.918 l -6.25,0.34 0,0 z m 21.16,-46.024 c -1.652,-0.488 -3.304,-1.082 -4.828,-1.68 -0.34,-1.394 -0.551,-2.82 -0.785,-4.355 1.125,-1.066 2.203,-2.246 3.414,-3.43 7.48,0.942 4.617,5.793 2.199,9.465 l 0,0 z m -38.383,20.281 c -2.859,0.129 -5.613,0.239 -8.343,0.239 -0.34,-1.543 -0.34,-2.578 -0.34,-4.973 l 3.937,-1.043 c 4.176,0 5.618,2.137 4.746,5.777 l 0,0 z m -61.664,32.719 c 0,-4.016 0.336,-4.484 3.731,-7.812 1.418,0 4.273,2.976 5.699,4.129 0,9.335 -6.25,4.746 -9.43,3.683 l 0,0 z m -20.191,-18.527 -6.27,0 c 0.235,-5.086 0.235,-5.086 0.555,-6.281 1.102,-0.45 1.102,-0.45 4.067,-0.829 5.062,0 2.519,4.864 1.648,7.11 l 0,0 z m 25.68,-28.489 -0.661,-2.468 c 0.551,-0.821 1.208,-1.66 1.868,-2.571 1.863,0 3.707,-0.132 5.59,-0.253 -0.211,3.656 -0.336,3.91 -1.649,6.027 l -5.148,-0.735 0,0 z M 225.48,199.441 c 1.418,0.141 1.418,0.141 7.118,1.887 l -5.469,6.27 c -1.758,0 -2.438,-1.075 -3.746,-1.653 l 0,-4.976 c 0.676,-0.449 1.308,-0.957 2.097,-1.528 l 0,0 z m -49.589,27.727 c -2.969,1.316 -3.075,0.598 -5.278,-0.098 -0.215,-3.3 0.996,-4.726 3.094,-8.371 5.043,1.75 3.285,3.528 2.184,8.469 l 0,0 z m 5.043,15.957 c 0,-2.715 0.996,-3.906 2.855,-6.961 0.996,0.574 2.082,1.172 3.18,1.668 0,5.891 -1.571,7.219 -6.035,5.293 l 0,0 z m -18.645,32.715 c 0.34,-4.031 0.781,-4.629 3.938,-8.758 1,0.594 2.097,1.18 3.175,1.68 0,7.664 -1.078,9.414 -7.113,7.078 l 0,0 z m 25.125,11.797 c 4.047,5.183 3.938,4.343 1.313,8.625 -1.442,0.105 -2.754,0.105 -4.071,0.105 -2.179,-5.078 -2.515,-3.777 0.555,-8.73 l 2.203,0 0,0 z m 43.625,89.125 c 1.899,-0.867 2.746,-3.403 1.242,-7.914 -0.871,-0.364 -1.656,-0.711 -2.418,-1.153 -5.172,0.547 -6.14,3.528 -5.484,7.657 1.574,1.054 3.164,1.652 4.551,1.75 -1.371,0.066 -2.973,-0.11 -4.871,-0.696 -1.524,-5.066 -0.11,-8.711 5.359,-9.558 6.016,1.597 6.711,8.254 1.621,9.914 l 0,0 z m -2.109,0.34 c 0.777,-0.039 1.5,-0.137 2.109,-0.34 -0.609,0.281 -1.32,0.394 -2.109,0.34 l 0,0 z M 470.66,187.18 c 11.528,2.129 24.473,9.793 34.024,18.054 -19.551,6.387 -36.438,14.629 -54.204,22.891 -11.296,9.102 -33.664,25.027 -47.281,25.027 7.899,-25.476 44.781,-59.488 67.461,-65.972 l 0,0 z m -55.836,55.133 c -2.515,3.07 -6.351,6.125 -7.117,7.785 10.633,0 30.652,-16.102 38.156,-20.848 5.321,-3.371 6.504,-4.172 13.075,-7.355 14.277,-3.887 26.683,-15.79 42.746,-16.883 -6.938,0.468 -23.532,-12.258 -30.223,-12.258 -7.582,0.84 -25.898,8.934 -27.227,13.887 -10.617,14.289 -26.015,17.011 -29.41,35.672 l 0,0 z M 182.691,171.477 c -16.566,-2.141 -32.793,-6.614 -47.05,-14.524 0,-0.957 1.211,-2.117 2.179,-3.555 9.215,1.907 32.793,11.211 41.356,9.454 7.918,-8.973 13.808,-14.289 24.144,-21.707 20.953,-7.461 29.192,14.625 43.871,14.625 31.711,-34.122 29.508,-18.907 67.493,-2.957 0.418,0.136 27.511,-19.93 40.796,-21.133 14.809,1.066 23.809,14.406 38.383,14.406 29.52,-12.523 33.903,-10.734 60.996,6.727 15.907,4.601 34.36,-8.625 54.864,-1.649 -0.235,0.606 -0.442,1.063 -0.657,1.531 -19.32,2.246 -39.062,9.563 -57.496,8.965 -18.871,-16.172 -31.047,-25.605 -52.761,-10.359 0.109,0.203 0.211,0.347 0.339,0.469 -0.128,0.085 -0.23,0.222 -0.23,0.332 -0.422,0 -0.871,0 -1.207,-0.11 -8.234,8.84 -9.547,5.293 -18.293,0.606 -21.973,-20.918 -37.645,-17.383 -55.965,4.687 -21.844,16.309 -34.215,-33.027 -64.953,-4.941 -13.281,14.875 -11.078,14.051 -28.637,2.351 -24.675,-13.699 -30.82,-1.882 -47.172,16.782 l 0,0 z m -28.535,-32.59 c 30.078,4.707 18.426,11.086 45.309,-8.973 18.008,-8.984 25.226,1.172 44.445,4.715 13.938,-11.914 30.715,-15.34 49.352,-14.27 26.226,15.95 17.351,14.161 40.824,-3.789 2.305,-1.179 5.801,-1.07 8.769,-3.172 17.668,0 25.333,1.282 40.586,12.04 16.129,7.785 33.243,-9.938 56.504,-0.379 18.879,8.757 27.313,6.511 48.067,6.972 -0.125,1.653 -0.235,3.321 -0.235,4.832 -32.132,5.676 -28.617,11.242 -53.312,-6.133 -22.059,-9.667 -35.867,11.106 -54.199,2.727 -36.203,-26.562 -36.203,-0.82 -69.102,5.781 -22.496,-10.867 -27.644,-15.476 -51.582,-5.175 -4.598,3.171 -12.496,10.125 -16.227,10.859 -26.667,-10.75 -31.242,-19.375 -54.523,-0.945 -10.082,7.187 -32.477,11.453 -34.676,-5.09 l 0,0 z m 62.11,-21.485 c 0.652,-1.308 1.312,-2.617 2.074,-4.004 5.933,0 9.449,0.352 15.91,2.586 0.23,-0.23 0.441,-0.484 0.652,-0.839 16.696,0 19.215,-4.129 35.336,-8.836 13.047,-2.715 27.981,5.441 41.457,6.73 16.141,-6.144 20.418,-9.555 40.274,-11.809 12.496,0.364 20.183,1.653 32.019,8.262 13.297,6.145 17.344,-3.672 34.586,-0.715 0.531,1.196 1.078,2.239 1.735,3.325 -11.52,3.992 -34.879,15.449 -42.356,1.648 -13.808,-6.855 -30.164,-7.227 -44.316,-4.258 -8.449,3.906 -13.809,10.867 -22.051,10.867 -12.707,-3.316 -34.992,-13.941 -46.281,-4.129 -25.785,12.625 -22.051,10.508 -49.039,1.172 l 0,0 z M 289.98,99.2109 c -0.335,-1.0468 -0.863,-3.3046 -1.867,-4.3476 4.285,-6.9727 17.117,1.1523 21.61,3.6445 7.011,0 14.363,-4.0039 22.285,-6.9648 0.762,0.3437 1.629,2.375 2.18,3.4297 -17.329,13.6913 -24.36,8.2693 -44.208,4.2382 l 0,0" />
        <path
           inkscape:connector-curvature="0"
           id="path4185"
           style="fill:#ffffff;fill-opacity:1;fill-rule:nonzero;stroke:none"
           d="m 212.344,68.0742 c 4.019,-1.2851 8.109,-3.125 11.07,-5.1054 l -4.051,-12.6485 -5.004,1.6055 c -0.351,2.2851 -0.504,4.9492 -0.375,6.914 -1.211,1.1719 -3.285,2.5274 -6.015,3.4063 -3.406,1.0937 -6.719,0.6758 -7.91,-3.0469 -2.832,-8.8476 19.379,-12.3047 14.777,-26.6797 -2.379,-7.4297 -10.82,-11.0937 -22.496,-7.3515 -3.414,1.0937 -7.434,2.9062 -10.258,4.5117 l 3.895,12.168 4.925,-1.5821 c 0.407,-2.3945 0.582,-5.2383 0.403,-7.1015 0.836,-0.7813 2.91,-1.8868 4.726,-2.4727 3.789,-1.2109 6.598,-0.2812 7.633,2.9609 2.582,8.0665 -19.684,12.4024 -15.18,26.4766 2.477,7.7422 11.579,11.8828 23.86,7.9453 l 0,0" />
        <path
           inkscape:connector-curvature="0"
           id="path4187"
           style="fill:#ffffff;fill-opacity:1;fill-rule:nonzero;stroke:none"
           d="m 175.984,81.0625 -2.023,-3.6211 c -2.207,-0.1953 -4.606,-0.0859 -6.809,0.3789 L 151.934,50.5977 c 1.449,-1.4766 2.902,-3.6172 3.929,-5.5313 l -1.98,-3.543 -20.078,11.2227 1.98,3.5547 c 2.164,0.1172 4.746,0.0078 6.77,-0.461 l 15.218,27.2266 c -1.55,1.6289 -2.898,3.6211 -3.89,5.6055 l 2.023,3.6133 20.078,-11.2227 0,0" />
        <path
           inkscape:connector-curvature="0"
           id="path4189"
           style="fill:#ffffff;fill-opacity:1;fill-rule:nonzero;stroke:none"
           d="m 98.8555,118.438 9.3595,9.66 c 5.734,-1.75 11.691,-5.098 16.836,-10.078 10.285,-9.973 10.512,-22.6684 1.219,-32.2583 -10.395,-10.7344 -24.469,-10.6054 -36.4106,0.9688 -3.4883,3.375 -6.9727,7.5664 -9.4258,11.4336 l 9.2969,9.6019 3.832,-3.711 c -0.5312,-2.266 -1.457,-4.4847 -2.5039,-6.3597 1.1367,-2.2578 2.9062,-4.7851 5.4805,-7.2734 6.4609,-6.2617 14.2229,-4.1914 20.5159,2.3047 6.058,6.25 7.363,14.6874 0.508,21.3364 -1.485,1.445 -3.086,2.761 -4.692,3.625 l -6.406,-6.614 c 0.797,-1.465 1.355,-3.515 1.812,-5.344 l -2.773,-2.859 -13.9454,13.524 2.7656,2.855 c 1.4375,-0.117 3.043,-0.293 4.5313,-0.812 l 0,0" />
        <path
           inkscape:connector-curvature="0"
           id="path4191"
           style="fill:#ffffff;fill-opacity:1;fill-rule:nonzero;stroke:none"
           d="m 98.3047,148.02 -3.5391,-2.168 c -2.0156,0.906 -4.0586,2.175 -5.7461,3.66 L 62.418,133.215 c 0.5468,-2.004 0.7617,-4.57 0.7265,-6.738 l -3.4648,-2.129 -12.0195,19.609 3.4687,2.129 c 1.9453,-0.957 4.1406,-2.316 5.6719,-3.711 l 26.6015,16.297 c -0.5546,2.187 -0.7578,4.582 -0.6523,6.789 l 3.5391,2.168 12.0156,-19.609 0,0" />
        <path
           inkscape:connector-curvature="0"
           id="path4193"
           style="fill:#ffffff;fill-opacity:1;fill-rule:nonzero;stroke:none"
           d="m 77.3555,185.234 -3.8828,-1.472 c -1.7032,1.226 -3.5547,2.82 -4.961,4.668 L 39.3398,177.375 c 0.1641,-2.07 -0.0781,-4.719 -0.539,-6.762 l -3.8047,-1.441 -8.1563,21.504 3.8008,1.445 c 1.7071,-1.23 3.6719,-3.125 4.8867,-4.707 l 29.7891,11.297 -3.8398,9.434 c -1.9063,-0.125 -4.8321,-0.125 -7.3711,0.019 l -1.8633,4.91 12.7226,4.824 12.3907,-32.664 0,0" />
        <path
           inkscape:connector-curvature="0"
           id="path4195"
           style="fill:#ffffff;fill-opacity:1;fill-rule:nonzero;stroke:none"
           d="m 59.9414,236.555 -4.0625,-0.852 c -1.4922,1.477 -3.0703,3.34 -4.1758,5.391 L 21.168,234.719 c -0.1602,-2.063 -0.8125,-4.641 -1.5938,-6.594 l -3.9765,-0.828 -4.6954,22.516 3.9766,0.832 c 1.4922,-1.473 3.1328,-3.653 4.0977,-5.411 l 31.1836,6.516 -2.3243,9.922 c -1.8984,0.176 -4.789,0.625 -7.2734,1.16 l -1.0742,5.148 13.3203,2.782 7.1328,-34.207 0,0" />
        <path
           inkscape:connector-curvature="0"
           id="path4197"
           style="fill:#ffffff;fill-opacity:1;fill-rule:nonzero;stroke:none"
           d="m 8.27734,327.961 20.25786,1.668 c 12.4062,0.984 19.4492,-6.316 20.4609,-18.047 1.2227,-14.277 -5.625,-19.824 -15.625,-20.684 L 11.625,289.023 c -0.4531,-1.472 -1.6133,-3.418 -2.51562,-4.609 l -4.04688,-0.351 -1.74219,20.226 4.04688,0.34 c 1.21094,-1.492 2.61328,-3.203 3.34761,-4.981 l 20.004,1.731 c 7.5234,0.641 11.7617,3.641 11.0703,11.66 -0.5586,6.492 -4.7266,9.41 -11.4961,8.75 L 8.98438,319.707 C 8.64844,317.844 7.40625,315.82 6.54297,314.23 L 2.49609,313.879 0.945313,331.797 5,332.148 c 1.09375,-1.101 2.65234,-2.722 3.27734,-4.187 l 0,0" />
        <path
           inkscape:connector-curvature="0"
           id="path4199"
           style="fill:#ffffff;fill-opacity:1;fill-rule:nonzero;stroke:none"
           d="m 46.0742,399.602 -4.1445,0.07 c -1.2227,1.379 -2.5156,3.226 -2.8203,4.832 l -26.043,-3.742 0,-0.082 32.8047,-12.223 -0.1406,-7.402 -33.6563,-11.551 -0.0039,-0.09 26.1719,-3.184 c 0.7773,1.817 1.9687,3.391 3.1523,4.715 l 4.1485,-0.074 -0.3086,-16.867 -4.1485,0.078 c -0.9726,1.133 -2.0273,2.422 -2.832,3.789 l -31.18359,5.742 c -0.78125,-1.894 -1.89453,-3.699 -3.0039,-5.351 L 0,358.332 l 0.328125,17.824 29.992175,10.758 0.0078,0.156 -29.585912,11.368 0.328122,17.828 4.14844,-0.078 c 0.96875,-1.692 2.09375,-3.461 2.71875,-5.543 l 31.3867,5.394 c 0.6914,1.262 1.793,2.594 2.9727,3.606 l 4.1484,-0.075 -0.3711,-19.968 0,0" />
        <path
           inkscape:connector-curvature="0"
           id="path4201"
           style="fill:#ffffff;fill-opacity:1;fill-rule:nonzero;stroke:none"
           d="m 30.5898,452.621 c -0.4023,-3.398 -3.5273,-5.746 -7.0742,-5.32 -3.539,0.426 -6.0195,3.445 -5.6093,6.84 0.4062,3.398 3.539,5.832 7.0781,5.406 3.5469,-0.426 6.0156,-3.527 5.6054,-6.926 l 0,0" />
        <path
           inkscape:connector-curvature="0"
           id="path4203"
           style="fill:#ffffff;fill-opacity:1;fill-rule:nonzero;stroke:none"
           d="m 26.5625,530.566 19.7461,-4.824 c 12.082,-2.984 16.457,-12.137 13.707,-23.594 -3.3437,-13.929 -11.5937,-17.027 -21.3515,-14.683 l -21.2227,5.094 c -0.8945,-1.254 -2.6133,-2.723 -3.8437,-3.579 l -3.94926,0.954 4.73046,19.734 3.957,-0.945 c 0.6797,-1.805 1.461,-3.875 1.5977,-5.793 l 19.5195,-4.688 c 7.3438,-1.758 12.3086,-0.254 14.1836,7.571 1.5235,6.343 -1.5039,10.425 -8.1367,11.937 l -20.8711,4.766 c -0.9062,-1.664 -2.7266,-3.196 -4.0469,-4.43 l -3.9492,0.945 4.1914,17.496 3.9492,-0.953 c 0.6954,-1.39 1.6563,-3.422 1.7891,-5.008 l 0,0" />
        <path
           inkscape:connector-curvature="0"
           id="path4205"
           style="fill:#ffffff;fill-opacity:1;fill-rule:nonzero;stroke:none"
           d="m 58.8828,606.137 34.3828,-17.492 -4.2968,-8.446 -40.5274,-5.187 24.0547,-10.719 c 1.3867,1.254 3.1406,2.328 5.1484,3.539 l 3.6993,-1.879 -8.7696,-17.242 -3.6953,1.879 c -0.207,2.34 -0.3437,4.64 -0.0664,6.461 l -27.543,14.465 c -1.5351,-1.543 -3.5039,-2.864 -5.4453,-4.11 l -3.6211,1.844 8.1563,16.031 36.1562,4.653 -21.0273,9.535 c -1.3086,-1.301 -3.1016,-2.262 -4.9375,-3.117 l -3.6172,1.839 7.6875,15.114 3.6211,-1.84 c 0.3476,-1.875 0.6992,-3.57 0.6406,-5.328 l 0,0" />
        <path
           inkscape:connector-curvature="0"
           id="path4207"
           style="fill:#ffffff;fill-opacity:1;fill-rule:nonzero;stroke:none"
           d="m 109.82,611.621 -3.066,2.793 c 0.312,2.191 0.961,4.508 1.918,6.543 l -23.0587,21.016 c -1.7695,-1.078 -4.1836,-2 -6.2735,-2.575 l -3.0078,2.743 15.5,17 3.0039,-2.739 c -0.3789,-2.132 -1.0703,-4.625 -1.9843,-6.488 l 23.0624,-21.012 c 1.934,1.137 4.18,2 6.332,2.516 l 3.067,-2.793 -15.493,-17.004 0,0" />
        <path
           inkscape:connector-curvature="0"
           id="path4209"
           style="fill:#ffffff;fill-opacity:1;fill-rule:nonzero;stroke:none"
           d="m 159.008,699.867 7.332,-40.91 -8.356,-5.102 -33.129,25.286 c -1.324,-0.125 -2.882,0.289 -4.421,0.515 l -2.114,3.469 17.055,10.398 2.121,-3.468 c -0.734,-1.703 -1.551,-3.274 -2.676,-4.938 l 23.285,-18.164 0.137,0.082 -6.773,28.235 c -1.664,-0.332 -3.918,-0.153 -5.617,-0.118 l -2.118,3.473 14.543,8.863 2.118,-3.468 c -0.34,-1.282 -0.645,-2.922 -1.387,-4.153 l 0,0" />
        <path
           inkscape:connector-curvature="0"
           id="path4211"
           style="fill:#ffffff;fill-opacity:1;fill-rule:nonzero;stroke:none"
           d="m 203.516,677.004 -1.137,3.992 c 1.391,1.516 3.113,3.301 5.078,4.547 l -8.516,29.926 c -2.093,0.094 -4.757,0.719 -6.714,1.191 l -1.114,3.91 33.071,9.414 3.136,-11.007 -4.976,-1.418 c -1.227,1.113 -3.031,3.101 -3.871,4.589 l -9.493,-2.699 3.614,-12.691 7.804,2.222 c 0.094,1.411 0.731,2.969 1.168,4.043 l 4.133,1.176 3.543,-12.445 -4.137,-1.18 c -0.882,0.781 -2.437,1.891 -3.164,2.981 l -7.804,-2.223 3.926,-13.805 9.496,2.703 c -0.063,1.965 0.394,4.422 0.859,6.286 l 5.055,1.433 3.265,-11.488 -33.222,-9.457 0,0" />
        <path
           inkscape:connector-curvature="0"
           id="path4213"
           style="fill:#ffffff;fill-opacity:1;fill-rule:nonzero;stroke:none"
           d="m 304.688,694.941 -0.586,4.864 c -6.032,-1.36 -6.766,15.234 -14.567,15.718 5.887,2.184 9.176,6.551 8.692,12.09 -0.77,8.766 -7.274,11.86 -18.774,10.848 -6.344,-0.555 -13.848,-1.547 -15.668,-1.707 l -5.633,-0.492 0.36,-4.055 c 1.914,-0.914 4.16,-1.879 6.355,-2.352 l 2.727,-31.085 c -2.239,-0.86 -4.356,-2.211 -5.84,-3.512 l 0.359,-4.129 21.41,1.875 -0.363,4.137 c -1.43,0.867 -3.293,2.039 -5.094,2.547 l -1.019,11.574 2.539,0.222 c 7.773,0.684 7.644,-18.824 17.953,-17.921 2.461,0.222 5.219,0.625 7.149,1.378 l 0,0 z m -24.536,22.84 -3.648,-0.32 -1.223,13.887 c 0.782,0.234 2.203,0.445 2.84,0.5 5.945,0.519 9.024,-1.789 9.438,-6.5 0.332,-3.805 -1.7,-7.067 -7.407,-7.567 l 0,0" />
        <path
           inkscape:connector-curvature="0"
           id="path4215"
           style="fill:#ffffff;fill-opacity:1;fill-rule:nonzero;stroke:none"
           d="m 342.309,693.324 c -4.211,0.196 -8.641,0.899 -12.012,2.051 l 0.617,13.262 5.25,-0.242 c 0.938,-2.122 1.77,-4.649 2.16,-6.579 1.477,-0.816 3.828,-1.589 6.692,-1.722 3.578,-0.168 6.664,1.101 6.843,5 0.438,9.281 -21.91,6.832 -21.207,21.914 0.364,7.793 7.567,13.519 19.809,12.953 3.578,-0.164 7.922,-0.863 11.078,-1.676 l -0.598,-12.765 -5.171,0.242 c -1.008,2.207 -1.918,4.902 -2.231,6.75 -1.012,0.547 -3.301,1.062 -5.203,1.152 -3.977,0.184 -6.441,-1.445 -6.602,-4.848 -0.39,-8.449 22.227,-6.843 21.536,-21.593 -0.375,-8.125 -8.079,-14.496 -20.961,-13.899 l 0,0" />
        <path
           inkscape:connector-curvature="0"
           id="path4217"
           style="fill:#ffffff;fill-opacity:1;fill-rule:nonzero;stroke:none"
           d="m 386.938,690.359 0.742,4.082 c 2.023,0.903 4.332,1.575 6.562,1.844 l 5.578,30.695 c -1.851,0.93 -3.918,2.489 -5.507,3.958 l 0.726,4 22.629,-4.118 -0.73,-4 c -2.004,-0.812 -4.481,-1.543 -6.547,-1.761 l -5.578,-30.696 c 2,-1.039 3.917,-2.484 5.5,-4.031 l -0.743,-4.086 -22.632,4.113 0,0" />
        <path
           inkscape:connector-curvature="0"
           id="path4219"
           style="fill:#ffffff;fill-opacity:1;fill-rule:nonzero;stroke:none"
           d="m 479.133,696.516 c -0.133,2.464 -0.289,5.742 0.023,8.027 l -7.101,2.824 -11.805,-29.687 c 1.738,-1.223 3.348,-3.207 4.668,-5.067 l -1.535,-3.859 -21.449,8.531 1.535,3.86 c 2.308,0.418 4.761,0.781 6.875,0.476 l 11.801,29.688 -7.102,2.824 c -1.238,-1.828 -3.77,-4.309 -5.496,-5.852 l -4.586,1.824 5.059,12.723 38.832,-15.445 -5.059,-12.719 -4.66,1.852 0,0" />
        <path
           inkscape:connector-curvature="0"
           id="path4221"
           style="fill:#ffffff;fill-opacity:1;fill-rule:nonzero;stroke:none"
           d="m 539.172,674.711 -9.098,7.105 -35.207,-21.648 c -1.41,0.258 -3.219,0.402 -4.769,0.355 l -2.555,-3.265 13.234,-10.344 2.555,3.266 c -0.449,1.621 -1.031,3.336 -2.004,4.937 l 4.735,2.828 12.859,-10.05 -1.598,-5.278 c -1.726,0.508 -3.656,0.754 -5.336,0.801 l -2.554,-3.266 15.742,-12.3 2.554,3.265 c -0.191,1.305 -0.695,2.86 -1.25,4.348 l 12.692,39.246 0,0 z m -11.707,-2.438 c -0.735,-1.843 -1.524,-3.757 -2.172,-5.882 l -4.176,-12.84 -10.16,7.937 11.773,7.438 c 1.786,1.129 3.34,2.336 4.672,3.398 l 0.063,-0.051 0,0" />
        <path
           inkscape:connector-curvature="0"
           id="path4223"
           style="fill:#ffffff;fill-opacity:1;fill-rule:nonzero;stroke:none"
           d="m 583.563,602.676 c 1.25,2.129 2.937,4.941 4.46,6.676 l -4.355,6.277 -26.25,-18.207 c 0.77,-1.984 1.016,-4.527 1.082,-6.801 l -3.406,-2.363 -13.16,18.961 3.41,2.363 c 2.156,-0.926 4.402,-1.984 5.988,-3.398 l 26.25,18.207 -4.355,6.277 c -2.039,-0.84 -5.516,-1.508 -7.813,-1.84 l -2.812,4.059 11.25,7.801 23.82,-34.333 -11.25,-7.8 -2.859,4.121 0,0" />
        <path
           inkscape:connector-curvature="0"
           id="path4225"
           style="fill:#ffffff;fill-opacity:1;fill-rule:nonzero;stroke:none"
           d="m 570.586,558.828 3.852,1.539 c 1.835,-1.234 3.632,-2.828 5.05,-4.582 l 28.965,11.59 c -0.199,2.059 0.02,4.637 0.418,6.766 l 3.77,1.507 8.547,-21.351 -3.77,-1.508 c -1.766,1.266 -3.695,2.977 -4.977,4.609 l -28.964,-11.585 c 0.187,-2.243 -0.02,-4.637 -0.493,-6.797 l -3.851,-1.543 -8.547,21.355 0,0" />
        <path
           inkscape:connector-curvature="0"
           id="path4227"
           style="fill:#ffffff;fill-opacity:1;fill-rule:nonzero;stroke:none"
           d="m 588.77,500.609 c -0.938,4.114 -1.442,8.571 -1.227,12.125 l 12.945,2.946 1.168,-5.121 c -1.797,-1.465 -4.011,-2.954 -5.765,-3.84 -0.391,-1.641 -0.516,-4.117 0.125,-6.91 0.793,-3.493 2.836,-6.125 6.644,-5.262 9.059,2.058 0.738,22.937 15.465,26.285 7.605,1.727 15.051,-3.68 17.77,-15.633 0.789,-3.488 1.277,-7.863 1.335,-11.117 l -12.46,-2.836 -1.145,5.043 c 1.855,1.566 4.211,3.164 5.906,3.957 0.254,1.121 0.149,3.461 -0.273,5.324 -0.883,3.883 -3.113,5.821 -6.43,5.071 -8.254,-1.879 -0.672,-23.254 -15.074,-26.532 -7.93,-1.8 -16.129,3.93 -18.984,16.5 l 0,0" />
        <path
           inkscape:connector-curvature="0"
           id="path4229"
           style="fill:#ffffff;fill-opacity:1;fill-rule:nonzero;stroke:none"
           d="m 617.906,452.621 c -0.406,3.399 2.071,6.422 5.614,6.848 3.546,0.426 6.668,-1.93 7.078,-5.328 0.402,-3.399 -2.067,-6.5 -5.61,-6.922 -3.543,-0.426 -6.672,2.004 -7.082,5.402 l 0,0" />
        <path
           inkscape:connector-curvature="0"
           id="path4231"
           style="fill:#ffffff;fill-opacity:1;fill-rule:nonzero;stroke:none"
           d="m 601.438,420.469 4.144,0.176 c 1.234,-1.7 2.484,-3.793 3.242,-5.997 l 31.164,1.325 c 0.496,2.011 1.555,4.449 2.645,6.246 l 4.062,0.168 0.965,-22.977 -4.055,-0.172 c -1.238,1.7 -2.5,4.114 -3.16,5.996 l -31.832,-1.347 0.68,-10.164 c 1.844,-0.485 4.629,-1.403 6.992,-2.336 l 0.223,-5.25 -13.598,-0.574 -1.472,34.906 0,0" />
        <path
           inkscape:connector-curvature="0"
           id="path4233"
           style="fill:#ffffff;fill-opacity:1;fill-rule:nonzero;stroke:none"
           d="m 639.625,320.266 -20.305,0.925 c -12.429,0.606 -18.48,8.75 -17.988,20.52 0.602,14.312 8.102,18.934 18.137,18.516 l 21.797,-0.918 c 0.636,1.406 2.039,3.179 3.086,4.246 l 4.062,-0.164 -0.855,-20.286 -4.063,0.176 c -1.008,1.633 -2.18,3.516 -2.68,5.371 l -20.058,0.84 c -7.539,0.321 -12.129,-2.117 -12.465,-10.144 -0.273,-6.528 3.484,-9.953 10.285,-10.16 l 21.395,-0.653 c 0.574,1.809 2.062,3.653 3.125,5.129 l 4.054,-0.18 -0.75,-17.964 -4.062,0.164 c -0.949,1.242 -2.281,3.046 -2.715,4.582 l 0,0" />
        <path
           inkscape:connector-curvature="0"
           id="path4235"
           style="fill:#ffffff;fill-opacity:1;fill-rule:nonzero;stroke:none"
           d="m 643.547,287.336 -4.012,0.672 c -1.465,-1.699 -2.988,-3.778 -3.875,-5.567 l -30.773,5.157 c -0.301,2.226 -1.008,4.523 -1.934,6.535 l -4.09,0.68 -1.031,-6.122 c -1.012,-6.046 -2.086,-11.433 -2.715,-15.195 -2.594,-15.469 3.891,-22.449 10.766,-23.594 4.914,-0.832 10.14,1.77 12.121,8.536 0.48,-5.645 3.934,-8.641 8.109,-9.344 7.364,-1.235 11.969,3.64 13.93,15.34 0.973,5.812 1.855,13.086 2.5,16.933 l 1.004,5.969 0,0 z m -27.301,-12.297 -0.66,-3.926 c -1.148,-6.824 -4.164,-10.761 -8.746,-10 -3.848,0.645 -6.766,3.801 -5.75,9.844 0.457,2.754 1.152,4.895 1.894,6.301 l 13.262,-2.219 0,0 z m 18.574,-3.113 c -0.097,-1.606 -0.34,-3.008 -0.664,-4.973 -0.988,-5.89 -4.211,-7.527 -7.972,-6.894 -3.766,0.625 -6.207,3.132 -5.098,9.726 0.277,1.653 0.523,3.145 0.805,4.309 l 12.929,-2.168 0,0" />
        <path
           inkscape:connector-curvature="0"
           id="path4237"
           style="fill:#ffffff;fill-opacity:1;fill-rule:nonzero;stroke:none"
           d="m 586.547,231.777 3.933,-1.328 c 0.461,-2.004 0.95,-4.441 0.864,-6.765 l 29.472,-9.973 c 1.27,1.672 3.289,3.508 4.797,4.844 l 3.852,-1.297 -11.027,-32.57 -10.848,3.671 1.66,4.903 c 1.613,0.371 4.281,0.734 5.98,0.578 l 3.165,9.351 -12.497,4.231 -2.601,-7.695 c 1.101,-0.879 2.023,-2.286 2.66,-3.25 l -1.375,-4.075 -12.262,4.153 1.375,4.07 c 1.149,0.281 2.946,0.938 4.254,0.918 l 2.602,7.687 -13.598,4.598 -3.164,-9.348 c 1.656,-1.062 3.418,-2.839 4.684,-4.273 l -1.684,-4.973 -11.32,3.829 11.078,32.714 0,0" />
        <path
           inkscape:connector-curvature="0"
           id="path4239"
           style="fill:#ffffff;fill-opacity:1;fill-rule:nonzero;stroke:none"
           d="m 553.98,159.082 c 7.899,13.074 18.583,15.832 30.512,8.625 13.988,-8.449 16.293,-21.652 9.008,-33.711 -2.715,-4.492 -5.469,-7.766 -7.863,-10.129 l -12.785,7.727 2.796,4.629 c 2.571,-0.246 5.364,-0.91 7.489,-1.731 1.492,0.867 3.113,2.578 4.347,4.629 3.579,5.93 1,12.41 -7.589,17.598 -8.172,4.941 -15.266,3.457 -20.575,-5.332 -1.687,-2.793 -3.054,-6.336 -3.449,-9.727 l -6.215,2.078 c -0.176,4.856 1.321,10.364 4.324,15.344 l 0,0" />
        <path
           inkscape:connector-curvature="0"
           id="path4241"
           style="fill:#ffffff;fill-opacity:1;fill-rule:nonzero;stroke:none"
           d="m 533.555,129.297 2.847,-3.02 c -0.531,-1.98 -1.246,-4.363 -2.414,-6.375 l 21.356,-22.6286 c 1.902,0.8789 4.551,1.5547 6.508,2.0352 l 2.793,-2.9609 -25.02,-23.5938 -7.855,8.332 3.761,3.543 c 1.61,-0.418 4.125,-1.3594 5.555,-2.2851 l 7.18,6.7656 -9.051,9.6015 -5.91,-5.5742 c 0.566,-1.289 0.722,-2.9687 0.832,-4.1211 l -3.129,-2.9531 -8.883,9.418 3.125,2.9492 c 1.145,-0.2852 3.043,-0.5586 4.184,-1.1836 l 5.91,5.5669 -9.852,10.441 -7.179,-6.77 c 0.96,-1.718 1.687,-4.109 2.132,-5.976 l -3.824,-3.6057 -8.199,8.6957 25.133,23.699 0,0" />
        <path
           inkscape:connector-curvature="0"
           id="path4243"
           style="fill:#ffffff;fill-opacity:1;fill-rule:nonzero;stroke:none"
           d="m 467.637,38.3398 -16.957,34.6485 8.504,4.1601 35.507,-20.207 -12.777,23.0313 c -1.863,-0.1758 -3.91,0.0156 -6.246,0.2617 l -1.824,3.7304 17.371,8.4961 1.828,-3.7226 c -1.242,-1.9883 -2.516,-3.9141 -3.832,-5.2031 l 13.312,-28.1133 c 2.157,0.3086 4.524,0.1758 6.825,0.0078 l 1.785,-3.6524 -16.156,-7.9101 -31.684,18.0195 11.062,-20.2539 c 1.833,0.2422 3.844,-0.0625 5.821,-0.4805 l 1.789,-3.6523 -15.231,-7.4492 -1.789,3.6484 c 0.852,1.711 1.586,3.2735 2.692,4.6406 l 0,0" />
        <path
           inkscape:connector-curvature="0"
           id="path4245"
           style="fill:#ffffff;fill-opacity:1;fill-rule:nonzero;stroke:none"
           d="m 413.254,63.0273 c 4.113,0.918 8.57,1.3985 12.133,1.1602 l 2.871,-12.957 -5.129,-1.1328 c -1.457,1.7968 -2.93,4.0234 -3.809,5.7812 -1.64,0.3984 -4.109,0.5274 -6.906,-0.0859 -3.504,-0.7813 -6.148,-2.8125 -5.305,-6.6133 2.012,-9.0742 22.934,-0.8672 26.204,-15.6055 1.687,-7.6172 -3.766,-15.0273 -15.731,-17.6758 -3.496,-0.7812 -7.879,-1.2421 -11.125,-1.2773 l -2.769,12.4687 5.05,1.1133 c 1.555,-1.8554 3.141,-4.2265 3.922,-5.9179 1.117,-0.2657 3.465,-0.1758 5.328,0.2421 3.883,0.8633 5.84,3.0782 5.102,6.3985 -1.828,8.2617 -23.246,0.793 -26.442,15.2148 -1.753,7.9297 4.016,16.0938 16.606,18.8867 l 0,0" />
        <path
           inkscape:connector-curvature="0"
           id="path4247"
           style="fill:#ffffff;fill-opacity:1;fill-rule:nonzero;stroke:none"
           d="m 372.148,55.0664 0.332,-4.1367 c -1.722,-1.3867 -3.785,-2.6289 -5.871,-3.4688 l 2.5,-31.0937 c 2.036,-0.4219 4.43,-1.3945 6.344,-2.4102 l 0.328,-4.05466 -22.929,-1.84375 -0.329,4.06251 c 1.731,1.2969 3.942,2.6445 5.875,3.3789 l -2.5,31.1016 c -2.191,0.4882 -4.421,1.3867 -6.347,2.4922 l -0.336,4.1289 22.933,1.8437 0,0" />
        <path
           inkscape:connector-curvature="0"
           id="path4249"
           style="fill:#ffffff;fill-opacity:1;fill-rule:nonzero;stroke:none"
           d="m 313.148,53.6523 c 4.219,-0.0976 8.665,-0.7148 12.059,-1.789 l -0.324,-13.2695 -5.25,0.1289 c -0.985,2.0976 -1.879,4.6093 -2.313,6.5312 -1.488,0.7813 -3.863,1.5039 -6.73,1.5703 -3.578,0.0899 -6.633,-1.25 -6.735,-5.1445 -0.222,-9.2852 22.063,-6.3477 21.696,-21.4453 -0.192,-7.793 -7.258,-13.67971 -19.516,-13.37893 -3.578,0.08594 -7.945,0.69531 -11.109,1.4375 l 0.308,12.76953 5.176,-0.125 c 1.059,-2.1875 2.031,-4.8633 2.383,-6.6992 1.02,-0.5274 3.32,-0.9961 5.23,-1.0469 3.981,-0.0937 6.407,1.5938 6.489,4.9922 0.211,8.457 -22.379,6.3594 -22.016,21.125 0.199,8.125 7.762,14.6562 20.652,14.3437 l 0,0" />
        <path
           inkscape:connector-curvature="0"
           id="path4251"
           style="fill:#ffffff;fill-opacity:1;fill-rule:nonzero;stroke:none"
           d="m 256.234,37.5391 c 3.391,-0.4883 5.664,-3.6719 5.157,-7.1953 -0.508,-3.5352 -3.586,-5.9415 -6.977,-5.4493 -3.391,0.4883 -5.742,3.668 -5.234,7.2071 0.511,3.5351 3.672,5.9257 7.054,5.4375 l 0,0" />
        <path
           inkscape:connector-curvature="0"
           id="path4253"
           style="fill:#ffffff;fill-opacity:1;fill-rule:nonzero;stroke:none"
           d="m 829.707,313.391 0,46.355 -14.535,0 0,-47.168 c 0,-10.957 -5.879,-16.953 -16.953,-16.953 -12.11,0 -17.989,5.652 -17.989,16.953 l 0,47.168 -14.417,0 0,-46.355 c 0,-13.957 2.539,-20.305 10.378,-25.723 5.766,-3.93 11.993,-5.539 21.567,-5.539 9.461,0 15.914,1.726 21.453,5.539 7.957,5.535 10.496,11.766 10.496,25.723 l 0,0 z m 96.543,-30.453 0,76.808 -13.727,0 0,-56.516 -0.687,1.391 -0.691,1.961 c -0.122,0.227 -0.348,0.691 -0.696,1.492 -0.347,0.813 -0.687,1.391 -0.804,1.621 l -31.95,50.051 -16.722,0 0,-76.113 13.836,0 0,55.82 c 0.347,-1.269 0.582,-1.726 1.043,-2.656 0.117,-0.117 0.461,-0.692 0.921,-1.609 0.922,-1.625 1.387,-2.661 1.618,-3 l 32.632,-49.25 15.227,0 0,0 z m 46.801,0.695 0,76.113 -14.531,0 0,-76.113 14.531,0 0,0 z m 88.769,76.113 -15.22,0 -16.61,-51.433 -0.46,-0.93 c -0.23,-0.574 -0.35,-0.918 -0.35,-1.953 l 0.12,-0.809 -0.35,1.387 -0.23,1.265 -0.23,1.04 -17.42,51.433 -15.91,0 28.26,-78.308 10.14,0 28.26,78.308 0,0 z m 70.38,-76.113 0,12.336 -33.33,0 0,20.301 26.06,0 0,12.343 -26.06,0 0,18.801 31.83,0 0,12.332 -46.36,0 0,-76.113 47.86,0 0,0 z m 82.03,0 -18.91,32.637 c 6.34,1.73 8.99,3.339 11.88,7.031 2.76,3.691 4.15,8.418 4.15,14.304 0,7.153 -2.08,12.688 -6.23,16.497 -4.5,4.269 -9.57,5.644 -20.64,5.644 l -25.37,0 0,-76.113 14.53,0 0,30.449 7.26,0 17.42,-30.449 15.91,0 0,0 z m -17.88,53.625 c 0,-7.61 -4.03,-10.84 -13.26,-10.84 l -9.45,0 0,20.996 9.45,0 c 9.46,0 13.26,-2.894 13.26,-10.156 l 0,0 z m 91.61,17.422 c -5.07,2.422 -7.14,3.218 -10.83,4.375 -4.73,1.383 -9.24,1.961 -14.3,1.961 -8.89,0 -13.62,-1.27 -19.15,-5.071 -2.43,-1.734 -4.39,-3.687 -5.66,-5.652 -1.84,-2.879 -3,-6.809 -3,-10.613 0,-8.301 4.16,-13.379 17.65,-21.106 l 11.77,-6.687 c 4.96,-2.766 6.69,-4.961 6.69,-8.188 0,-4.617 -4.39,-7.613 -11.08,-7.613 -3,0 -7.14,0.809 -10.95,2.195 -3,1.153 -5.31,2.305 -10.84,5.305 l -6.12,-13.379 c 2.2,-1.047 3.93,-1.848 4.97,-2.309 7.95,-3.687 10.49,-4.617 15.91,-5.308 2.19,-0.344 4.5,-0.461 6.81,-0.461 16.83,0 26.76,7.961 26.76,21.57 0,5.305 -1.96,10.383 -5.2,13.606 -3.57,3.574 -11.19,8.418 -22.83,14.648 -5.42,2.883 -7.27,4.844 -7.27,8.074 0,4.27 4.38,7.036 11.19,7.036 5.07,0 11.65,-1.848 19.72,-5.422 l 5.76,13.039 0,0 z m 40.47,-71.047 0,76.113 -14.53,0 0,-76.113 14.53,0 0,0 z m 82.67,63.781 0,12.332 -60.21,0 0,-12.332 22.84,0 0,-63.781 14.53,0 0,63.781 22.84,0 0,0 z m 57,20.066 c 0,3.575 -2.88,6.336 -6.34,6.336 -3.46,0 -6.23,-2.761 -6.23,-6.336 0,-3.464 2.77,-6.23 6.23,-6.23 3.46,0 6.34,2.766 6.34,6.23 l 0,0 z m -19.02,0.34 c 0,3.469 -2.78,6.235 -6.23,6.235 -3.47,0 -6.35,-2.766 -6.35,-6.235 0,-3.457 2.88,-6.336 6.35,-6.336 3.45,0 6.23,2.879 6.23,6.336 l 0,0 z m 36.78,-84.187 -27.56,76.113 -13.03,0 -27.57,-76.113 15.23,0 6.23,18.801 25.48,0 6,-18.801 15.22,0 0,0 z m -25.14,31.133 -17.65,0 8.77,27.57 8.88,-27.57 0,0 z m 91.95,32.648 0,12.332 -60.19,0 0,-12.332 22.83,0 0,-63.781 14.53,0 0,63.781 22.83,0 0,0 z m 122.61,-63.781 0,12.336 -40.61,0 40.61,54.324 0,9.453 -60.21,0 0,-12.332 40.6,0 -41.29,-54.328 0,-9.453 60.9,0 0,0 z m 88.17,29.758 0,46.355 -14.53,0 0,-47.168 c 0,-10.957 -5.88,-16.953 -16.95,-16.953 -12.11,0 -17.99,5.652 -17.99,16.953 l 0,47.168 -14.41,0 0,-46.355 c 0,-13.957 2.52,-20.305 10.37,-25.723 5.77,-3.93 12,-5.539 21.57,-5.539 9.45,0 15.92,1.726 21.45,5.539 7.96,5.535 10.49,11.766 10.49,25.723 l 0,0 z m 120.99,-29.758 0,12.336 -31.14,0 0,63.777 -14.53,0 0,-76.113 45.67,0 0,0 z m 70.19,83.847 c 0,3.575 -2.88,6.336 -6.34,6.336 -3.46,0 -6.22,-2.761 -6.22,-6.336 0,-3.464 2.76,-6.23 6.22,-6.23 3.46,0 6.34,2.766 6.34,6.23 l 0,0 z m -23.52,0.11 c 0,3.465 -2.77,6.348 -6.35,6.348 -3.46,0 -6.23,-2.883 -6.23,-6.348 0,-3.457 2.77,-6.223 6.23,-6.223 3.58,0 6.35,2.766 6.35,6.223 l 0,0 z m 37.94,-54.199 0,46.355 -14.53,0 0,-47.168 c 0,-10.957 -5.88,-16.953 -16.96,-16.953 -12.11,0 -17.99,5.652 -17.99,16.953 l 0,47.168 -14.42,0 0,-46.355 c 0,-13.957 2.54,-20.305 10.38,-25.723 5.77,-3.93 11.99,-5.539 21.58,-5.539 9.45,0 15.9,1.726 21.44,5.539 7.96,5.535 10.5,11.766 10.5,25.723 l 0,0 z m 85.13,-9.465 c 0,11.887 -7.26,19.375 -18.79,19.609 5.99,0.344 9.11,1.731 12.46,5.535 2.76,3.235 4.38,7.727 4.38,11.993 0,4.96 -2.31,10.382 -6,13.617 -4.16,3.797 -9.12,5.066 -19.03,5.066 l -27.57,0 0,-76.113 31.03,0 c 15.22,0 23.52,7.148 23.52,20.293 l 0,0 z m -18.1,34.597 c 0,-6.453 -4.38,-9.91 -12.57,-9.91 l -8.65,0 0,19.602 9.46,0 c 7.38,0 11.76,-3.574 11.76,-9.692 l 0,0 z m 2.19,-32.976 c 0,-3.926 -1.96,-7.266 -5.19,-8.887 -2.19,-1.035 -4.27,-1.387 -8.76,-1.387 l -9.46,0 0,20.997 9.46,0 c 9,0 13.95,-3.809 13.95,-10.723 l 0,0 z m 91.08,-21.914 0,12.336 -33.33,0 0,20.301 26.07,0 0,12.343 -26.07,0 0,18.801 31.83,0 0,12.332 -46.36,0 0,-76.113 47.86,0 0,0 z m 83.71,70.234 c -6.58,4.961 -14.19,7.266 -23.88,7.266 -12.57,0 -21.1,-3.113 -28.72,-10.606 -7.5,-7.382 -11.65,-17.422 -11.65,-28.496 0,-11.875 4.73,-23.176 12.81,-30.449 7.15,-6.453 15.68,-9.453 27.56,-9.453 4.5,0 8.54,0.461 12.23,1.269 3.46,0.813 5.42,1.504 10.27,3.692 l -2.66,12.226 c -6.81,-2.656 -11.3,-3.574 -16.72,-3.574 -16.61,0 -27.45,10.723 -27.45,27.102 0,14.414 10.5,24.793 25.13,24.793 6.7,0 12.58,-1.731 17.54,-5.301 l 5.54,11.531 0,0 z m 80.74,-70.234 -27.57,39.094 26.19,37.019 -16.72,0 -23.88,-35.516 0,35.516 -14.53,0 0,-76.113 14.53,0 0,36.211 25.37,-36.211 16.61,0 0,0" />
      </g>
    </g>
  </g>
</svg>
